<?xml version="1.0" encoding="utf-8"?>
<!-- Generator: Adobe Illustrator 28.1.0, SVG Export Plug-In . SVG Version: 6.00 Build 0)  -->
<svg version="1.1" id="Moeslem_Kids_Praying" xmlns="http://www.w3.org/2000/svg" xmlns:xlink="http://www.w3.org/1999/xlink"
	 x="0px" y="0px" viewBox="0 0 2000 1000" enable-background="new 0 0 2000 1000" xml:space="preserve">
<g>
	<path fill="#F2E7CE" d="M1723.6,903.8c0,5.4-2.3,10.6-6.6,14.2c-4.4,3.8-10.3,5.4-16,4.4c-5-0.9-9.9-1.7-14.7-2.6
		c-26.6-4.7-48.3-8.6-64.2-7.3c2.3-10.8,3.2-21.4,2.6-31.8c43.7,26.1,59-10.7,84.2-6h0c4.6,4,8.3,8.8,10.7,13.9
		C1722.3,893.9,1723.6,899.1,1723.6,903.8z"/>
	<g>
		<path fill="#FFFFFF" d="M1712.6,643.4c-6.6,5.7-13.3,9.7-20,11.9c0.3,3.3,0.6,6.6,0.9,9.9c0.1,0.7,0.2,1.4,0.2,2.1
			c8.7-2.9,15.4-7.7,20.5-14.4C1713.7,649.7,1713.1,646.5,1712.6,643.4z"/>
		<path fill="#FFFFFF" d="M1630,680.5c16,10,32.6,18.5,49.5,25.6c4,1.7,7.8,3.3,11.4,4.9c-0.8-3.3-1.6-6.6-2.3-9.9
			c-2.9-1.3-5.9-2.6-9.1-3.9c-34.7-14.4-67.5-34.9-97.7-60.9c-20-17.3-39.1-25.9-58-26.3c-1.6,2.8-3.2,5.6-4.9,8.3
			c21.5-0.2,42.7,8.9,64.8,28C1598.6,659.2,1614,670.5,1630,680.5C1630,680.5,1630,680.5,1630,680.5z"/>
		<path fill="#FFFFFF" d="M1699.3,867.5c-11-8.1-19.9-19.5-25.9-33c-1.2-2.7-2.5-5.2-3.8-7.3c-3.1-4.9-7.9-8.3-13.7-9.5
			c-5.8-1.2-11.8-0.1-16.7,3.3c-2.3,1.6-4.6,3.3-7.1,5.2c-5.4,4-11.5,8.5-18.7,12.2c6.7,13.6,10.5,27.8,11.4,42.4
			c43.7,26.1,59-10.7,84.2-6c-1.6-1.4-3.4-2.8-5.3-4C1702.3,869.7,1700.8,868.6,1699.3,867.5z"/>
		<path fill="#FFFFFF" d="M1577.5,211.5c20.9,36.6,32.6,82.6,34.9,137c0,0,0,0,0,0.1c0.3,8.2,0.5,16.7,0.4,25.3
			c-0.5,47.3-21.2,90.9-55.2,120.7c15.8-11.6,28.9-25.7,39.3-42.1c10.5-16.8,18.1-36.1,22.7-58.1c2-9.5,3.1-19.1,3.3-28.8
			c0.3-29.2-1.8-58.7-7.6-87.2c-7.8-37.8-22.6-75-47.5-104.8c-24.5-29.5-58.5-51.6-95.8-60.5c-36.8-8.7-77.1-1.8-108.8,18.9
			c-5.2,5.5-9.9,11.4-14.1,17.5c37.9-29.8,90.5-37.8,137.4-18.6C1525.4,146.7,1556.1,173.9,1577.5,211.5z"/>
	</g>
	<path fill="#875749" d="M1478.9,200.1c-1.4-2.9,1.8-5.8,4.6-4.1c21.8,13.2,48.6,22.4,80.1,28c-31.5-52.3-73.6-89.2-138.2-93.7
		c-35.7,2.3-69.5,19.2-91.9,48.4c-9.6,12.4-17,26.4-22.1,41.5c38.8-17,76-38.3,101.5-61.6c1.4-2.2,2.7-4.5,3.8-6.9
		c1.1-2.4,3.9-3.4,6.3-2.3c1.4,0.6,2.3,1.8,2.6,3.2c1.4,5.4,3.1,10.7,5.3,15.8c13.6,21,31.4,37,54.3,46.8c1.4,0.6,2.6-1,1.7-2.2
		C1483.9,208.9,1481.1,204.7,1478.9,200.1z"/>
	<g>
		<path fill="#A89D89" d="M1555.7,683.4c8.8-8.6,13.5-20,9.4-32.7c-7.3-7.1-19.3-14.4-34.7-21.8c0.4,0.4,0.8,0.8,1.2,1.2
			c3.6,3.6,6.6,7.7,9.1,11.9c0.7,1.3,0.3,2.9-0.9,3.7c-1.1,0.7-2.6,0.4-3.4-0.6c-5.8-6.9-12.4-12.6-20.3-17c-1.5-0.1-2.8-0.8-3.7-2
			c-0.2-0.1-0.4-0.2-0.6-0.3c-0.9,0-1.9-0.2-2.7-0.8c-0.5-0.3-0.9-0.7-1.2-1.2c-10.1-5-20.8-9.5-30.9-14.4c-1.4-0.7-4.1-2-6.4-3.1
			c-4.8,18.9-13.3,36.8-23.9,53.2c16.7,16.8,37.4,29.3,63.4,35.8C1526.3,699.3,1543.7,695.1,1555.7,683.4z"/>
		<path fill="#A89D89" d="M1548.7,858.7c-11.1,3.6-23.8,7.6-37.4,13.3c-2.4,1-5.2-0.1-6.2-2.5s0.1-5.2,2.5-6.2
			c14-5.8,26.8-10,38.2-13.6c21.5-6.9,38.4-12.3,53.1-25.5c23.1-31.3,25.5-66,9.5-103.8c-3-7.2-12.2-9.2-18.1-4.1
			c-0.2,0.2-0.4,0.3-0.6,0.5c-38.4,32.8-95.4,31.2-133.1-2.4c-8.5-7.6-16.2-16.2-23.5-25.4l0,0c-4.2-3.2-8.4-6.7-12.5-10.4
			c-0.9-0.8-1.5-2-1.6-3.2c-1.1-15.4-0.3-28.1,2.5-38.8c-1.3-1-2.6-2-3.9-3c1.6,33.2-8.4,53-18.1,72.2c-5.4,10.7-10.4,20.7-13.5,33
			c-0.4,1.4-1.3,2.6-2.7,3.2c-58.3,26-93.6,60.7-104.8,103.1c-1,3.8-1.6,7.7-1.8,11.5c15.8,25.7,47.1,35.4,79.4,30.3
			c21.9-3.4,44.5-0.2,63.9,10.5c52.8,29.1,132,20.8,195.4-20.1c-1.5-14.6-6.2-28.6-14.3-42.3
			C1585.7,846.8,1568.4,852.4,1548.7,858.7z"/>
	</g>
	<g>
		<path fill="#877961" d="M1642.4,743.3c0-0.2-0.1-0.4-0.1-0.6c-3.4-17-9.6-35.3-18.5-54.9c-11-6.9-21.7-14.5-32.1-22.6
			c-10.8,23.1-26.3,40.7-46.3,52.5c-8.9,5.3-19,8-29.1,8c-3.4,0-6.9-0.3-10.3-0.9c-23.8-4.4-48.3-16.5-73.1-35.8l0,0
			c7.3,9.2,15.1,17.8,23.5,25.4c37.7,33.6,94.7,35.2,133.1,2.4c0.2-0.2,0.4-0.3,0.6-0.5c5.9-5.1,15.1-3.1,18.1,4.1
			c16,37.8,13.6,72.5-9.5,103.8c1-0.9,2.4-1.4,3.8-1.2c1.4,0.2,2.6,1,3.4,2.1c1,1.6,2,3.2,3,4.8c6.5-3.3,12.1-7.5,17.5-11.5
			c2.6-1.9,5-3.7,7.5-5.4c1.8-1.2,3.7-2.3,5.7-3.1C1646.3,790,1647.2,768,1642.4,743.3z"/>
		<path fill="#877961" d="M1419.8,897.3c-19.4-10.7-42-13.9-63.9-10.5c-32.3,5.1-63.7-4.6-79.4-30.3c-1.3,21.6,9.5,42.1,28.7,52.4
			c15.5,8.4,35.3,12.6,60.3,12.9c19.7,0.3,39.3,3.2,58.5,8.6c56.1,15.9,115.3,13.1,186.1-8.8c4.9-15.4,6.6-30.2,5.2-44.5
			C1551.8,918.1,1472.6,926.3,1419.8,897.3z"/>
		<path fill="#877961" d="M1507.8,715.5c11.2,2.1,22.9,0,32.8-5.9c19.1-11.3,33.4-27.9,43.4-50.5c-2.2-1.8-4.3-3.6-6.4-5.4
			c-16.3-14-31.8-22.2-47.2-24.8c15.4,7.4,27.3,14.7,34.7,21.8c4.1,12.7-0.7,24.2-9.4,32.7c-11.9,11.7-29.3,16-45.5,11.9
			c-26-6.6-46.7-19-63.4-35.8c-2.6,4.1-5.4,8-8.2,11.9c-0.9,1.3-2.7,1.5-4,0.6c-1.1-0.9-1.5-2.4-0.8-3.6c2.8-5,5.5-10.1,8-15.3
			c-4-3.4-8.1-6.7-12.3-10c-1.7,8.4-2.1,18.2-1.4,29.8C1455.3,696.3,1482.1,710.7,1507.8,715.5z"/>
		<path fill="#877961" d="M1393,697c8.6-17.2,16.1-34.6,14.8-62.6c-2.9-1.8-6.7-4.1-10.9-6.7c-0.2,20.9-15.5,41.3-33.3,50.7
			c-2.8,1.4-5.3-2.5-2.8-4.4c3.7-2.8,7.1-5.9,10.1-9.4c-5.9-3.2-11.9-6.9-18.2-11c-1.8,8.3-1.6,18.3-1,28.2
			C1364.3,689.3,1378.1,694.4,1393,697z"/>
	</g>
	<g>
		<path fill="#EDAF85" d="M1412.2,617.2c4.8,4.1,10,7.6,14.9,11.6c6.4,5,12.7,10,18.9,15.3c1.5-3.3,3-6.7,4.4-10.1
			c2.3-5.5,4.3-11.1,6.3-16.8C1447.5,624.4,1432,623.6,1412.2,617.2z"/>
		<path fill="#EDAF85" d="M1603.1,351.7c-25.1-14.8-40.8-36.8-48-67.1c0,0,0-0.1,0-0.1c-15.4-6.9-30.5-14.7-45-23.3
			c-32.8-19.8-65-44.3-83.5-78.8c-2.8-5.2-5.1-10.7-7-16.4c-11.4,17.1-29.6,29-46.9,39.7c-14.1,8.6-28.7,16.3-42.6,25
			c-0.1,0.1-0.1,0.3-0.2,0.4c32.2-10.8,61.6-26.7,88.4-47c20.9,36.9,61.6,72,125.8,105c7.9,24.6,21.3,45.1,40.8,61.4
			c2.7,99.8-101.8,158.1-210,123.4c11.6,4.9,23.8,8.6,36.2,11c18.9,3.4,38.5,5,57.7,3.6c3.8-0.2,8.6-0.9,12.4-1.3
			c3.3-0.4,4.3,4.6,0.8,5.4c-3.8,0.8-8.7,1.8-12.5,2.4c-5.9,0.9-12.2,1.7-18.4,2.1c-2.3,3.9-4.1,9.3-1.1,14.6
			c4.1,7.2,16,11.5,30.9,11.2c10.2-2.5,20.1-5.8,29.8-9.8c13.5-5.7,25.8-13.2,36.8-22.2c-2.3-5.9-3.8-12.5-4.5-19.8
			c-4.2,2.3-8.6,4.3-13.2,5.9c-1.4,0.5-2.9-0.2-3.4-1.6c-0.4-1.2,0.1-2.4,1.1-3.1c5.7-3.5,11.1-7.1,16.3-10.8
			c0.4-0.5,0.9-0.8,1.5-1.1c18.3-13.2,33.8-28.4,45-49.3c1-1.8,2.9-2.7,4.8-2.4c1.2,0.2,2.5,0.3,3.7,0.3c2.8-11.4,4.3-23.1,4.4-35.2
			C1603.4,366.2,1603.3,358.8,1603.1,351.7z"/>
		<path fill="#EDAF85" d="M1371.4,610.2c-0.4-0.3-0.7-0.6-0.9-1c-5.6,14.8-24.8,19.5-45.3,11.3c2.2,2.2,4.6,4.2,7,6.2
			c16.7,13.3,30.9,23,44.6,30.3c1.6-2.4,3-4.9,4.3-7.5c4.3-8.8,6.8-18.8,5.6-28.4C1381.2,617.5,1375.7,613.6,1371.4,610.2z"/>
	</g>
	<g>
		<path fill="#F5D07F" d="M1673.2,554.2c-1.7-18.6-3.9-37.3-5.8-55.9c-0.3-3.1,4.3-4.1,5.1-0.7c0.2,0.9,0.3,1.8,0.5,2.7
			c1.4,8,8.7,13,10.8,22.5c-8.3-43.6-7.3-89.4,3-133.4c11.9-50.9,16-97.7,12.1-139.1c-6.1-64.1-45.1-121.5-102-149.7
			c-55.9-27.7-116.1-31.7-169.6-11.2c-13.1,5-25.3,11.4-36.4,19c65.5-21.9,138,5.9,182.5,60.7c38.1,46.7,52.1,108,54.5,167.1
			c0.3,9.8,0.5,19.9,0.2,29.7c-0.3,10-1.6,19.9-3.7,29.6c-0.3,1.3-1.6,2.2-2.9,1.9c-1.3-0.3-2.2-1.6-1.9-2.9
			c-4.6,21.9-12.2,41.3-22.7,58.1c38.2-45.3,61.5-87.9,77-129.2c1.3-3.6,6.7-2.5,6.5,1.3c-1.2,25.5-6.1,55.7-14.6,90.8
			c1.2-2.6,5.3-1.2,4.4,1.7c-17.5,54-60.4,94.1-112.6,113.9c-15.6,16-35.8,30.9-59.5,45c-6.7,4-7.1,13.7-0.5,18
			c5.8,3.7,12.8,6.5,21.4,8.1c6.3-10,11.9-20.6,17-31.5c0.7-1.4,2.3-2,3.7-1.4c1.3,0.6,2,2.2,1.4,3.6c-4.3,11.1-9.1,22-14.7,32.5
			c19.3,1.1,38.5,10.1,58.6,27.3c29.8,25.7,62.2,45.9,96.4,60.1c2.1,0.9,4.2,1.8,6.1,2.6c-2.7-14.3-4.4-28.8-5.7-43.3
			C1679.1,620.3,1676.5,586,1673.2,554.2z"/>
		<path fill="#F5D07F" d="M1395.9,505.3c5.6-4.7,12.3-8.2,19.5-9.7c-2-0.3-4-0.6-5.9-1c-20.8,9.1-34.9,22.1-41.8,38.9
			c3.4,2,5.7,5.7,5.8,9.8c0.3,10.9,2.1,18.8,3.9,26.5c0.6,2.7,1.2,5.4,1.8,8.2c1.5,7.8,2.3,16,0.5,26.6c5.4,4.1,12.2,8.6,18.5,12.7
			c-10-11.4-14.7-25-17.6-39.5c-1.5-7.5-2.5-15.2-3.5-23.1c-0.2-2.3-0.6-5-0.8-7.4c-0.4-5.5,0.5-11.1,2.4-16.2
			C1382.4,521.3,1387.8,512.2,1395.9,505.3z"/>
	</g>
	<g>
		<path fill="#E8AC51" d="M1696.1,573.2c-3-11.6-6.2-23.6-9.1-35.7c-1.1-4.6-2.1-9.2-3-13.8c-0.1-0.3-0.1-0.6-0.2-0.9
			c-2.1-9.5-9.3-14.5-10.8-22.5c9.2,49.6,14.4,100,19.1,150.2c6.4-2.3,12.9-6.5,19.4-12.5C1707.3,615.9,1701.8,595,1696.1,573.2z"/>
		<path fill="#E8AC51" d="M1680.3,324.6c0.2-3.8-5.2-4.9-6.5-1.3c-15.5,41.2-38.8,83.9-77,129.2c-10.3,16.5-23.4,30.5-39.3,42.1
			c0,0,0,0,0,0c-0.5,0.4-0.9,0.8-1.4,1.2c0,0-0.1,0-0.1,0.1c-12.3,10.5-26.3,19.3-41.6,25.8c-10.3,4.3-20.9,7.8-31.6,10.4
			c-0.1,0-0.2,0-0.3,0.1c-3.8,0.9-7.7,1.7-11.5,2.4c6.6,19,4.1,39.7-1.2,58.6l-0.5,1.8c0,0.1,0,0.1,0,0.1c0,0.1,0.1,0.2,0.1,0.2
			l0.4,0.2l1.6,0.8c7.2,3.7,15.1,7.5,22.5,10.9c5.3,2.5,10.9,5.1,16.3,7.9c3.1-4.2,6-8.4,8.7-12.8c-8.6-1.6-15.7-4.4-21.4-8.1
			c-6.6-4.2-6.2-14,0.5-18c23.7-14.1,43.9-29,59.5-45c-3.5,1.4-7.1,2.6-10.7,3.8c-18.6,6.2-37.7,10.2-57,12.5
			c-2.9,0.3-3.7-4-0.8-4.7c46.2-9.9,92.3-26.3,127.7-58.5c21.2-19,37.3-42.7,49-68.7C1674.3,380.4,1679.1,350.1,1680.3,324.6z"/>
		<path fill="#E8AC51" d="M1637.7,696.2c5.8,14.3,10.2,28,13.1,41c14.8-1,29.6-5.5,40.5-15.5c-4.8-2.2-9.9-4.5-15.4-6.8
			C1662.9,709.5,1650.2,703.2,1637.7,696.2z"/>
		<path fill="#E8AC51" d="M1441.9,516.2c-3.3-5.7-3.7-12.3-1.3-18.9c-3.5,0-7.1-0.2-10.6-0.2c-0.9-0.1-1.9-0.2-2.9-0.3
			c3.7,2,6.7,5.3,7.9,9.4c0.2,0.5,0.7,2,0.8,2.6c4.3,13.4,9.2,27.3,14.3,40.3c0.3-4.5-0.1-9-0.8-13.5c-0.1-0.8-0.2-1.8,0-2.6
			c0.4-2.8,1.7-5,3.4-6.5C1447.9,523.8,1444.2,520.4,1441.9,516.2z"/>
		<path fill="#E8AC51" d="M1333.4,503.8c2.3,1.9,4.1,4.4,5.2,7.3c3.7,9.8,7.8,19.7,12.3,29.4c0.5-2.3,1.8-4.4,3.6-6
			c1-0.8,2.1-1.5,3.3-1.9c6.3-17.1,18.7-31,36.9-41.2c-21-5.5-40.9-14.8-58.3-27.9C1337.5,478,1336.5,491.5,1333.4,503.8z"/>
	</g>
	<g>
		<path fill="#292418" d="M1489.8,547.3c19.3-2.2,38.4-6.3,57-12.5c3.6-1.2,7.2-2.4,10.7-3.8c52.2-19.9,95.1-59.9,112.6-113.9
			c0.9-2.9-3.2-4.3-4.4-1.7c-11.7,26-27.8,49.7-49,68.7c-35.3,32.2-81.5,48.6-127.7,58.5C1486.1,543.3,1486.9,547.6,1489.8,547.3z"
			/>
		<path fill="#292418" d="M1728.3,884.5c-4.1-8.6-10.7-16.1-19.4-21.8c-1.3-0.9-2.7-1.8-4-2.8c-9.6-7.1-17.5-17.2-22.8-29.2
			c-1.4-3.1-2.9-6-4.5-8.5c-4.5-7.1-11.5-12-19.7-13.8c-2.5-0.5-5.1-0.7-7.6-0.7c5.3-18.7,6-39,2.3-61.2
			c13.2-1.1,26.8-4.6,37.9-12.2c4.3-2.9,8.2-6.4,11.7-10.2c1-1,1.5-2.6,1.1-4.1c-3.7-14.3-6.5-28.6-8.4-43.2
			c12.1-3.7,21.6-10.4,28.2-20.1c0.7-1,1-2.2,0.8-3.4c-4.5-29-11.3-55-18.6-82.5c-3-11.5-6.2-23.5-9.1-35.5
			c-11.3-46.5-11.3-96.3-0.2-143.8c12.2-51.9,16.3-99.7,12.3-142.2c-3.1-33.2-14.6-65.2-33.3-92.6c-18.7-27.6-44.3-50-74-64.7
			c-29.9-14.8-61-23.2-92.5-24.7c-29.5-1.5-58,3-84.7,13.2c-26.2,10-49.1,25.4-67,44.3c-0.4,0.4-0.8,0.7-1.1,1.2
			c-13,14.1-23.3,30-30.3,47.4c-31.5,41.2-40.5,98-25,156.1c-0.6,2.2-1.4,4.3-2.2,6.5c-1.5,4-2.9,8.1-4,12.3
			c-7.1,25.2-4.8,53.2,7.7,76.3c6,11.5,14.3,21.7,23.9,30.4c2.2,16.5,1.7,31.6-1.4,44.9c-2.3-0.3-4.6-0.2-6.9,0.4
			c-13.9,3.7-24.2,13-30.6,27.7c-4.2,9.5-5.4,20.1-3.6,30.8c2.7,15.7,8.7,31.4,17.9,46.8c6.5,10.9,14.9,20.5,25,28.6
			c6.4,5.1,12.4,9.6,18.2,13.8c-3,10.1-3,22.3-2,37.1c0.1,1.5,0.9,2.9,2.2,3.7c13.2,8.3,28,14.1,43.9,17.3
			c-4.3,8.7-8.6,17.8-11.4,28.3c-59.8,27.1-96.2,63.6-108,108.4c-7.9,29.7,5.1,60.5,31.5,74.7c16.9,9.1,38.1,13.7,64.6,14.1
			c18.8,0.3,37.7,3,56,8.2c24.6,7,49.8,10.5,76.1,10.5c36.4,0,75-6.6,117.7-20.1c1.5-0.5,2.6-1.6,3.1-3c0.5-1.6,1-3.1,1.5-4.7
			c14.5-2.1,37,1.9,65,6.8c4.8,0.8,9.7,1.7,14.7,2.6c1.7,0.3,3.3,0.4,5,0.4c6.8,0,13.5-2.4,18.8-6.9c6.4-5.4,10-13.2,9.9-21.5
			C1733.1,897.6,1731.4,891.1,1728.3,884.5z M1650.8,737.1c-2.9-13-7.2-26.7-13.1-41c12.5,7.1,25.2,13.3,38.2,18.7
			c5.5,2.3,10.5,4.5,15.4,6.8C1680.4,731.7,1665.6,736.2,1650.8,737.1z M1379,577.9c-0.5-2.7-1.1-5.4-1.8-8.2
			c-1.8-7.7-3.6-15.7-3.9-26.5c-0.1-4.1-2.4-7.7-5.8-9.8c6.9-16.7,21-29.8,41.8-38.9c2,0.4,3.9,0.7,5.9,1c-7.2,1.6-13.9,5-19.5,9.7
			c-8.1,6.9-13.4,16-17.3,25.7c-2,5.2-2.8,10.7-2.4,16.2c0.2,2.4,0.5,5.1,0.8,7.4c1,7.8,2,15.6,3.5,23.1
			c2.9,14.6,7.6,28.1,17.6,39.5c-6.3-4.1-13.2-8.6-18.5-12.7C1381.3,593.9,1380.5,585.7,1379,577.9z M1336.4,463.4
			c17.4,13.1,37.3,22.4,58.3,27.9c-18.2,10.2-30.6,24.1-36.9,41.2c-1.2,0.4-2.3,1.1-3.3,1.9c-1.9,1.6-3.1,3.7-3.6,6
			c-4.5-9.7-8.6-19.6-12.3-29.4c-1.1-3-2.9-5.4-5.2-7.3C1336.5,491.5,1337.5,478,1336.4,463.4z M1393.3,587.9
			c-3-11.1-4.9-22.9-6.3-34.5c-0.1-1.9-0.7-5.1-0.7-6.9c-0.1-1.5-0.1-3.1,0.1-4.7c4.5,11.2,10.4,25.6,10.4,25.6
			c1.4,3.2,6.1,1.5,5.2-1.8l-11.1-37.4c1.2-2.3,2.6-4.5,4-6.6c4.6,12.9,13,36.9,13,36.9c1.2,3.2,6,1.8,5.2-1.6l-11.2-43.3
			c0.2-0.2,0.4-0.4,0.6-0.5c1.6-1.4,3.3-2.6,5.1-3.6c4.1,11.5,14.8,41.2,14.8,41.2c1.2,3.1,5.8,1.7,5-1.6l-11.4-43.1
			c0.1,0,0.2,0,0.2-0.1c2.5-0.7,4.3-1,6.5,0.2c1.6,0.9,2.5,2.5,3,4.2l0.6,1.7c4.8,14.9,10.1,29.7,16,44.2c1.6,5.2,6.7,7.9,11.8,6
			c3-1,5.3-4.3,5.5-7.4l0.1-1c0.8-5.8,0.6-11.8-0.3-17.4c-0.1-0.8-0.3-1.6-0.4-2.3c0-0.1,0.1-0.3,0.3-0.3c1.2,0,1.3,0.7,1.8,1.8
			c7.3,18,4.4,38.5-0.7,56.8c-0.9,2.8-0.2,6,1.6,8.4c-1.7,5.5-3.4,11-5.3,16.4l0,0c-1.9,5.6-4,11.2-6.3,16.8
			c-1.4,3.4-2.9,6.8-4.4,10.1c-6.3-5.3-12.6-10.3-18.9-15.3c-4.8-4-10.1-7.5-14.9-11.6h0c-2.3-1.9-4.4-4-6.4-6.2
			C1400,604.3,1395.7,596.4,1393.3,587.9z M1441.9,516.2c2.4,4.2,6.1,7.6,10.8,10.2c-1.7,1.5-2.9,3.6-3.4,6.5
			c-0.1,0.8-0.1,1.8,0,2.6c0.8,4.5,1.1,9.1,0.8,13.5c-5.1-13-10-26.9-14.3-40.3c-0.2-0.5-0.7-2.1-0.8-2.6c-1.3-4.1-4.2-7.4-7.9-9.4
			c1,0.1,1.9,0.2,2.9,0.3c3.5,0.1,7.1,0.3,10.6,0.2C1438.2,504,1438.6,510.5,1441.9,516.2z M1429.5,643c4.2,3.3,8.3,6.6,12.3,10
			c-2.5,5.2-5.2,10.3-8,15.3c-0.7,1.2-0.4,2.8,0.8,3.6c1.3,0.9,3,0.7,4-0.6c2.8-3.9,5.6-7.8,8.2-11.9c10.6-16.4,19.1-34.3,23.9-53.2
			c2.3,1.1,4.9,2.4,6.4,3.1c10.1,4.9,20.8,9.4,30.9,14.4c0.3,0.5,0.7,0.9,1.2,1.2c0.8,0.5,1.8,0.8,2.7,0.8c0.2,0.1,0.4,0.2,0.6,0.3
			c0.8,1.2,2.2,1.9,3.7,2c7.9,4.4,14.5,10.1,20.3,17c0.8,1,2.3,1.3,3.4,0.6c1.3-0.7,1.7-2.4,0.9-3.7c-2.5-4.3-5.6-8.3-9.1-11.9
			c-0.4-0.4-0.8-0.8-1.2-1.2c15.4,2.6,30.9,10.8,47.2,24.8c2.1,1.8,4.3,3.6,6.4,5.4c-10.1,22.6-24.3,39.2-43.4,50.5
			c-10,5.9-21.6,8-32.8,5.9c-25.7-4.8-52.4-19.1-79.7-42.7C1427.4,661.2,1427.9,651.4,1429.5,643z M1583.8,646.4
			c-22.1-19.1-43.4-28.2-64.8-28c1.7-2.7,3.3-5.5,4.9-8.3c19,0.4,38,9,58,26.3c30.1,26,63,46.5,97.7,60.9c3.2,1.3,6.2,2.6,9.1,3.9
			c0.7,3.3,1.5,6.6,2.3,9.9c-3.6-1.6-7.4-3.3-11.4-4.9c-17-7.1-33.5-15.6-49.5-25.6c0,0,0,0,0,0
			C1614,670.5,1598.6,659.2,1583.8,646.4z M1714.2,652.9c-5,6.7-11.8,11.4-20.5,14.4c-0.1-0.7-0.2-1.4-0.2-2.1
			c-0.3-3.3-0.6-6.6-0.9-9.9c6.7-2.2,13.4-6.2,20-11.9C1713.1,646.5,1713.7,649.7,1714.2,652.9z M1363.2,131.9
			c31.7-20.7,71.9-27.5,108.8-18.9c37.4,8.9,71.3,31,95.8,60.5c24.9,29.8,39.7,67,47.5,104.8c5.8,28.6,7.9,58,7.6,87.2
			c-0.2,9.7-1.4,19.3-3.3,28.8c-0.3,1.3,0.6,2.6,1.9,2.9c1.3,0.3,2.6-0.5,2.9-1.9c2.1-9.7,3.4-19.7,3.7-29.6
			c0.2-9.8,0.1-19.9-0.2-29.7c-2.4-59.1-16.4-120.4-54.5-167.1c-44.5-54.9-116.9-82.6-182.5-60.7c11.1-7.6,23.3-14,36.4-19
			c53.5-20.5,113.7-16.6,169.6,11.2c56.9,28.2,96,85.6,102,149.7c3.9,41.4-0.1,88.2-12.1,139.1c-10.3,44-11.3,89.8-3,133.4
			c0.1,0.3,0.1,0.6,0.2,0.9c0.9,4.6,1.9,9.3,3,13.8c3,12.2,6.1,24.1,9.1,35.7c5.7,21.8,11.2,42.7,15.4,64.7
			c-6.5,6-13,10.2-19.4,12.5c-4.7-50.2-9.9-100.6-19.1-150.2c-0.2-0.9-0.3-1.8-0.5-2.7c-0.8-3.4-5.4-2.3-5.1,0.7
			c1.9,18.6,4.1,37.3,5.8,55.9c3.3,31.7,5.9,66.1,8.6,98c1.3,14.5,3,29,5.7,43.3c-2-0.9-4-1.7-6.1-2.6
			c-34.2-14.2-66.6-34.4-96.4-60.1c-20-17.3-39.3-26.3-58.6-27.3c5.6-10.6,10.4-21.5,14.7-32.5c0.5-1.4-0.1-2.9-1.4-3.6
			c-1.4-0.7-3.1,0-3.7,1.4c-5.1,10.9-10.7,21.4-17,31.5c-2.8,4.4-5.7,8.7-8.7,12.8c-5.4-2.8-11-5.3-16.3-7.9
			c-7.4-3.4-15.2-7.2-22.5-10.9l-1.6-0.8l-0.4-0.2c-0.1,0-0.1-0.1-0.1-0.2c0,0,0,0,0-0.1l0.5-1.8c5.2-18.9,7.8-39.6,1.2-58.6
			c3.9-0.7,7.7-1.5,11.5-2.4c0.1,0,0.2,0,0.3-0.1c10.8-2.6,21.4-6.1,31.6-10.4c15.4-6.5,29.3-15.2,41.6-25.8c0,0,0,0,0.1-0.1
			c0.5-0.4,0.9-0.8,1.4-1.2c0,0,0,0,0,0c34.1-29.8,54.7-73.5,55.2-120.7c0.1-8.6,0-17-0.4-25.3c0,0,0,0,0-0.1
			c-2.3-54.3-14-100.3-34.9-137c-21.5-37.7-52.1-64.8-91.1-80.7c-46.9-19.1-99.4-11.1-137.4,18.6
			C1353.3,143.3,1358,137.4,1363.2,131.9z M1552.1,465.4c6.1-4,11.8-8.4,17.1-13.3c10-9.1,18.9-19.6,26.1-31.1
			c-8,24.1-21.8,45.7-40.2,62.9C1553.5,478.4,1552.5,472.3,1552.1,465.4z M1306.1,239.2c1.4-6.6,3.1-13,5.2-19.2
			c5.1-15.1,12.5-29,22.1-41.5c22.4-29.1,56.3-46.1,91.9-48.4c19.1-1.2,38.8,1.8,57.4,9.4c51.5,21,111.9,73,119.7,200.6
			c-17.8-12.1-29.8-28.9-36.4-50.9c7.1,3,14.3,5.7,21.5,8.3c3.4,1.1,5-3.6,2.1-5c-54.8-28-122.9-59.6-154.2-115
			c-1.7-3-3.2-6.1-4.5-9.3c-2.2-5.1-3.9-10.4-5.3-15.8c-0.3-1.4-1.3-2.5-2.6-3.2c-2.4-1.1-5.2-0.1-6.3,2.3c-1.1,2.4-2.4,4.7-3.8,6.9
			c-4.5,7-10.4,13.2-16.9,18.9c-26.8,23-60.2,37.5-87.1,60.7c-0.5,0.5-0.8,1-0.9,1.5c-0.5,2.3,2.2,4.5,4.5,2.8
			c1.7-1.2,3.3-2.4,5-3.6c-5.5,11.5-9.5,23.8-11.6,36.5c-1.2,7.3-1.8,14.6-1.9,22C1301.6,277.2,1302.3,257.6,1306.1,239.2z
			 M1300.5,374.3c0.3-7.9,1.5-15.8,3.6-23.5c1-3.9,2.3-7.7,3.7-11.4c3.1-8.2,5-16.9,5.7-25.6c0.3-4.3,0.4-8.7,0.2-13
			c-0.5-11.6,0.7-23.1,3.2-34.3c0.2,1.9,2.7,3.3,4.3,1.5c2.6-3,5.5-5.7,8.6-7.9c6.2-4.5,13.5-6.8,21.2-6.9c3.8,0,7.6,0.4,11.4,1.2
			c2.5,0.5,4.9-1.2,5.2-3.7c0.3-2.4-1.4-4.5-3.8-4.8c-4.3-0.5-8.7-0.7-13.2-0.4c-13.5,0.9-25.4,8.6-33.2,19.3
			c-0.1,0.1-0.1,0.2-0.2,0.4c2.8-11.8,7.1-23.3,12.8-34.2c0.1-0.1,0.1-0.3,0.2-0.4c14-8.7,28.5-16.4,42.6-25
			c17.3-10.6,35.5-22.5,46.9-39.7c1.9,5.6,4.2,11.1,7,16.4c18.5,34.6,50.7,59,83.5,78.8c14.5,8.7,29.5,16.4,45,23.3c0,0,0,0.1,0,0.1
			c7.2,30.3,22.9,52.3,48,67.1c0.2,7.1,0.3,14.5,0.3,22.1c-0.1,12-1.7,23.8-4.4,35.2c-1.2,0-2.4-0.2-3.7-0.3
			c-1.9-0.3-3.8,0.6-4.8,2.4c-11.2,20.9-26.7,36.1-45,49.3c-0.6,0.3-1.1,0.6-1.5,1.1c-5.2,3.7-10.7,7.3-16.3,10.8
			c-1,0.7-1.5,1.9-1.1,3.1c0.5,1.4,2,2.1,3.4,1.6c4.5-1.6,8.9-3.6,13.2-5.9c0.7,7.3,2.2,13.8,4.5,19.8c-11,9-23.3,16.5-36.8,22.2
			c-9.7,4.1-19.6,7.4-29.8,9.8c-15,0.3-26.8-3.9-30.9-11.2c-3-5.3-1.1-10.7,1.1-14.6c6.2-0.4,12.6-1.2,18.4-2.1
			c3.7-0.5,8.6-1.6,12.5-2.4c3.4-0.8,2.5-5.7-0.8-5.4c-3.8,0.4-8.6,1.1-12.4,1.3c-19.2,1.4-38.8-0.2-57.7-3.6
			c-12.3-2.5-24.5-6.1-36.2-11c-15.3-6.5-29.6-15.1-42.1-26.1C1312.1,429.4,1299.3,402.1,1300.5,374.3z M1332.2,626.7
			c-2.5-2-4.8-4-7-6.2l0,0c-6.1-5.9-11.4-12.5-15.7-19.8c-8.5-14.3-14.2-29-16.7-43.5c-0.5-2.7-0.7-5.5-0.7-8.1
			c6.7,10,16.4,24.2,16.4,24.2c2,2.8,6.3,0.2,4.7-2.8l-18.9-34.9c0.4-1.3,0.9-2.5,1.4-3.7c0.7-1.6,1.5-3.1,2.3-4.6
			c6.1,11.8,18.5,35.8,18.5,35.8c1.7,3.1,6.3,0.9,5-2.3l-17.4-41.8c1.8-1.8,3.7-3.4,5.7-4.8c4.3,9.1,18.6,39.2,18.6,39.2
			c1.6,3.1,6.2,1.1,5-2.1l-15.3-41.1c0.6-0.2,1.3-0.4,1.9-0.6c1.9-0.5,3.9-0.3,5.6,0.5c0,0,0.1,0,0.2,0.1c1.7,0.9,3.1,2.4,3.9,4.4
			c5.4,14.4,11.7,28.9,18.8,42.9c1.4,2.8,4.5,4.1,7.5,3.3c3-0.9,4.9-3.6,4.7-6.7c-0.3-3.8-0.5-7.5-0.6-10.9c0-0.7,0.4-1.1,0.6-1.3
			c0.3-0.2,0.7-0.5,1.3-0.3l0.1,0c1,0.2,1.8,1.1,1.8,2.1c0.4,11.8,2.4,20.6,4.1,28.3c2.5,11,4.5,19.7,1.6,33.7
			c-0.3,1.3,0,2.6,0.8,3.7c0.2,0.4,0.6,0.7,0.9,1c4.3,3.4,9.8,7.3,15.4,11c1.2,9.6-1.3,19.6-5.6,28.4c-1.3,2.6-2.7,5.1-4.3,7.5
			C1363.2,649.7,1349,640,1332.2,626.7z M1351.8,681.8c-0.6-10-0.8-20,1-28.2c6.3,4.2,12.3,7.8,18.2,11c-3,3.5-6.4,6.6-10.1,9.4
			c-2.5,1.9-0.1,5.9,2.8,4.4c17.8-9.4,33.2-29.9,33.3-50.7c4.2,2.6,8,5,10.9,6.7c1.2,28-6.3,45.4-14.8,62.6
			C1378.1,694.4,1364.3,689.3,1351.8,681.8z M1610,921.6c-70.8,21.9-130,24.7-186.1,8.8c-19.1-5.4-38.8-8.3-58.5-8.6
			c-25-0.3-44.8-4.6-60.3-12.9c-19.2-10.3-30-30.8-28.7-52.4c0.2-3.8,0.8-7.6,1.8-11.5c11.2-42.5,46.5-77.1,104.8-103.1
			c1.3-0.6,2.3-1.8,2.7-3.2c3-12.2,8.1-22.3,13.5-33c9.7-19.2,19.6-39,18.1-72.2c1.3,1,2.6,2,3.9,3c-2.8,10.7-3.6,23.4-2.5,38.8
			c0.1,1.2,0.7,2.4,1.6,3.2c4.2,3.7,8.4,7.1,12.5,10.4c24.8,19.3,49.3,31.4,73.1,35.8c3.4,0.6,6.9,0.9,10.3,0.9
			c10.1,0,20.2-2.7,29.1-8c19.9-11.8,35.5-29.5,46.3-52.5c10.4,8.2,21.1,15.7,32.1,22.6c8.9,19.6,15.1,37.9,18.5,54.9
			c0,0.2,0.1,0.4,0.1,0.6c4.8,24.6,3.9,46.7-2.7,66.7c-2,0.8-3.9,1.8-5.7,3.1c-2.5,1.7-4.9,3.5-7.5,5.4c-5.4,4-11,8.2-17.5,11.5
			c-0.9-1.6-1.9-3.2-3-4.8c-0.8-1.2-2-1.9-3.4-2.1c-1.4-0.2-2.8,0.2-3.8,1.2c-14.7,13.2-31.6,18.6-53.1,25.5
			c-11.3,3.6-24.1,7.7-38.2,13.6c-2.4,1-3.6,3.8-2.5,6.2s3.8,3.6,6.2,2.5c13.6-5.7,26.3-9.7,37.4-13.3c19.7-6.3,37-11.9,52.2-23.8
			c8.1,13.7,12.9,27.7,14.3,42.3C1616.6,891.4,1614.9,906.2,1610,921.6z M1717.1,918c-4.4,3.8-10.3,5.4-16,4.4
			c-5-0.9-9.9-1.7-14.7-2.6c-26.6-4.7-48.3-8.6-64.2-7.3c2.3-10.8,3.2-21.4,2.6-31.8c-0.9-14.6-4.7-28.7-11.4-42.4
			c7.2-3.7,13.2-8.2,18.7-12.2c2.5-1.9,4.8-3.6,7.1-5.2c4.9-3.4,10.9-4.5,16.7-3.3c5.7,1.2,10.6,4.6,13.7,9.5
			c1.3,2.1,2.6,4.6,3.8,7.3c6,13.5,14.9,24.9,25.9,33c1.5,1.1,3,2.1,4.4,3.1c1.9,1.2,3.6,2.6,5.3,4h0c4.6,4,8.3,8.8,10.7,13.9
			c2.5,5.4,3.9,10.5,3.9,15.2C1723.7,909.2,1721.3,914.4,1717.1,918z"/>
		<path fill="#292418" d="M1467.8,266.7c10-1.2,20.2,1.1,29.2,5.8c9.2,4.8,17.3,11.8,24.6,19.6c1,1.1,2.7,1.2,3.8,0.2
			c1.2-1,1.3-2.7,0.4-3.9c-14.3-17.7-34.8-32.7-58.7-31.1C1460.6,257.8,1461.4,267.2,1467.8,266.7z"/>
		<path fill="#292418" d="M1458.9,350.6c8.1,7.2,18.5,10.4,28.6,10c1.3,2.9,3.1,5.6,5.4,7.8c0.9,0.9,2.3,1.1,3.4,0.5
			c1.5-0.7,2.1-2.5,1.3-4c-0.9-1.8-1.5-3.7-1.8-5.6c0.8-0.2,1.7-0.5,2.5-0.7c1.9,2.5,4.2,4.7,6.7,6.3c1.1,0.7,2.5,0.6,3.5-0.2
			c1.3-1,1.5-2.9,0.4-4.2c-1.4-1.7-2.3-3.5-3-5.5c0.7-0.4,1.3-0.9,2-1.3c2.5,1.8,5.2,3.1,8.1,3.9c3.2,0.8,5.2-3.5,2.4-5.4
			c-1.7-1.1-3.1-2.5-4.3-4.1c1.4-1.6,2.7-3.3,3.8-5.1c1.8-2.8-1.9-6-4.4-3.9c-9.3,7.7-20.7,12-32.5,9.9c-11.8-2-21.6-9.4-29-19
			c-0.7-1-2.1-1.5-3.3-1c-1.6,0.5-2.4,2.2-1.9,3.8C1449,339.4,1453.3,345.7,1458.9,350.6z"/>
		<path fill="#292418" d="M1372,400c2.3,6.2,7.9,10.2,13.7,12.7c14,5.6,32.2,4.8,43.5-6.1c1.8-1.8,7.3-8.7,4.2-10.8
			c-1.1-0.8-2.6-0.5-3.4,0.6c-2.9,4.1-7,6.8-11.6,8.5c-12.3,4.3-33.2,3.3-42.2-7.1C1374.6,395.6,1371.1,397.4,1372,400z"/>
		<path fill="#292418" d="M1386.5,384.9c1.9,0.6,3.2-2,1.6-3.2c-2.7-1.9-5-4.1-4.5-7.3c0.9-3.6,4.7-5.8,8.2-7.2
			c0.8-0.3,1.4-1.1,1.2-2c-0.2-1-1.1-1.6-2.1-1.4c-2.3,0.5-4.6,1.2-6.7,2.6C1376.1,371.5,1377.1,382.1,1386.5,384.9z"/>
		<path fill="#292418" d="M1331.8,345c-0.3,1.1-0.7,2.2-1.2,3.3c-0.6,1.2-0.1,2.8,1.1,3.4c1,0.5,2.2,0.3,2.9-0.4
			c1.2-1.1,2.2-2.4,3.1-3.8c7.2,2.1,15.2,1.7,22-1.7c5.9-2.8,10.6-7.1,13.9-12.2c0.7-1,0.7-2.3,0-3.3c-0.9-1.4-2.8-1.7-4.2-0.8
			c-8.1,5.7-17.3,9.8-26.9,7.9c-9.6-1.8-16.5-9.2-21.4-17.7c-0.6-1.1-1.8-1.7-3.1-1.5c-1.6,0.3-2.7,1.8-2.5,3.5
			c0.6,3.3,1.6,6.5,3.2,9.6c-0.3,0.3-0.5,0.6-0.8,0.9c-1.2,2.1-2.8,4-5,5.3c-2.4,1.6-0.7,5.3,2,4.6c2.9-0.8,5.7-2.3,8.1-4.2
			c0.1,0.1,0.2,0.3,0.4,0.4c0.1,0.2,0.3,0.3,0.4,0.5c-0.6,2.1-1.5,4-2.9,5.7c-0.9,1.1-0.7,2.7,0.4,3.6c0.9,0.7,2,0.7,2.9,0.2
			c2-1.2,3.7-2.8,5.2-4.7C1330.2,344.1,1331,344.5,1331.8,345z"/>
	</g>
	<g>
		<path fill="#F5B09D" d="M1491.9,374.5c-16.1-1.5-29.2,5.2-29.2,14.8c0,9.7,13.1,18.7,29.2,20.2c16.1,1.5,29.2-5.2,29.2-14.8
			C1521.1,385,1508.1,376,1491.9,374.5z"/>
		<path fill="#F5B09D" d="M1328.8,358.2c-10.9-1-19.7,3.5-19.7,10c0,6.5,8.8,12.6,19.7,13.6c10.9,1,19.7-3.5,19.7-10
			C1348.5,365.3,1339.7,359.2,1328.8,358.2z"/>
	</g>
	<g>
		<path fill="#FFD9BF" d="M1461.1,535.6c-0.5-1.2-0.6-1.8-1.8-1.8c-0.2,0-0.3,0.1-0.3,0.3c0.1,0.8,0.3,1.5,0.4,2.3
			c0.8,5.7,1,11.6,0.3,17.4l-0.1,1c-0.2,3.1-2.5,6.4-5.5,7.4c-5.1,1.9-10.2-0.8-11.8-6c-6-14.5-11.2-29.3-16-44.2l-0.6-1.7
			c-0.4-1.7-1.4-3.3-3-4.2c-2.1-1.2-4-0.9-6.5-0.2c-0.1,0-0.2,0-0.2,0.1l11.4,43.1c0.8,3.2-3.8,4.7-5,1.6c0,0-10.7-29.7-14.8-41.2
			c-1.8,1.1-3.5,2.3-5.1,3.6c-0.2,0.2-0.4,0.4-0.6,0.5l11.2,43.3c0.8,3.4-4,4.8-5.2,1.6c0,0-8.4-23.9-13-36.9
			c-1.5,2.1-2.8,4.3-4,6.6l11.1,37.4c0.9,3.3-3.8,5-5.2,1.8c0,0-5.9-14.4-10.4-25.6c-0.2,1.6-0.2,3.2-0.1,4.7c0,1.8,0.6,5,0.7,6.9
			c1.4,11.6,3.3,23.4,6.3,34.5c2.3,8.5,6.7,16.4,12.5,23.1c2,2.3,4.1,4.3,6.4,6.2h0c19.8,6.4,35.3,7.3,44.4,0l0,0
			c1.9-5.4,3.6-10.9,5.3-16.4c-1.8-2.4-2.5-5.5-1.6-8.4C1465.5,574,1468.4,553.6,1461.1,535.6z"/>
		<path fill="#FFD9BF" d="M1368,571.9c-1.8-7.8-3.8-16.6-4.1-28.3c0-1.1-0.8-2-1.8-2.1l-0.1,0c-0.6-0.1-1,0.1-1.3,0.3
			c-0.2,0.2-0.6,0.6-0.6,1.3c0.1,3.4,0.3,7.1,0.6,10.9c0.3,3.1-1.7,5.9-4.7,6.7c-3,0.8-6.1-0.5-7.5-3.3c-7.1-14-13.4-28.5-18.8-42.9
			c-0.7-2-2.2-3.5-3.9-4.4c0,0-0.1,0-0.2-0.1c-1.7-0.8-3.6-1.1-5.6-0.5c-0.7,0.2-1.3,0.4-1.9,0.6l15.3,41.1c1.1,3.3-3.5,5.2-5,2.1
			c0,0-14.3-30.1-18.6-39.2c-2.1,1.4-4,3-5.7,4.8l17.4,41.8c1.3,3.2-3.3,5.4-5,2.3c0,0-12.4-24-18.5-35.8c-0.8,1.4-1.6,3-2.3,4.6
			c-0.5,1.2-1,2.5-1.4,3.7l18.9,34.9c1.6,3.1-2.7,5.7-4.7,2.8c0,0-9.6-14.3-16.4-24.2c0,2.7,0.2,5.4,0.7,8.1
			c2.5,14.5,8.1,29.2,16.7,43.5c4.3,7.3,9.6,13.9,15.7,19.8l0,0c20.5,8.2,39.7,3.5,45.3-11.3c-0.7-1-1-2.4-0.8-3.7
			C1372.5,591.6,1370.5,582.9,1368,571.9z"/>
		<path fill="#FFD9BF" d="M1585.1,350.3c-19.5-16.3-33-36.9-40.8-61.4c-64.3-32.9-104.9-68-125.8-105c-26.9,20.3-56.2,36.2-88.4,47
			c-5.7,10.9-10,22.4-12.8,34.2c0.1-0.1,0.1-0.2,0.2-0.4c7.8-10.7,19.7-18.5,33.2-19.3c4.4-0.4,8.9-0.2,13.2,0.4
			c2.4,0.3,4.1,2.4,3.8,4.8c-0.3,2.5-2.7,4.2-5.2,3.7c-3.8-0.8-7.6-1.2-11.4-1.2c-7.6,0-15,2.4-21.2,6.9c-3.1,2.2-6,5-8.6,7.9
			c-1.6,1.8-4.1,0.4-4.3-1.5c-2.5,11.2-3.7,22.7-3.2,34.3c0.2,4.3,0.1,8.7-0.2,13c-0.7,8.7-2.6,17.4-5.7,25.6
			c-1.4,3.7-2.6,7.5-3.7,11.4c-2.1,7.7-3.3,15.6-3.6,23.5c-1.2,27.8,11.6,55.2,32.4,73.4c12.5,11,26.8,19.7,42.1,26.1
			C1483.2,508.5,1587.7,450.1,1585.1,350.3z M1384.2,366.3c2.1-1.3,4.4-2.1,6.7-2.6c1-0.2,1.9,0.5,2.1,1.4c0.2,0.9-0.4,1.8-1.2,2
			c-3.5,1.4-7.3,3.5-8.2,7.2c-0.5,3.3,1.8,5.4,4.5,7.3c1.6,1.2,0.4,3.8-1.6,3.2C1377.1,382.1,1376.1,371.5,1384.2,366.3z
			 M1328.8,381.8c-10.9-1-19.7-7.1-19.7-13.6c0-6.5,8.8-11,19.7-10c10.9,1,19.7,7.1,19.7,13.6
			C1348.5,378.3,1339.7,382.8,1328.8,381.8z M1359.7,345.6c-6.8,3.4-14.8,3.9-22,1.7c-0.9,1.4-1.9,2.7-3.1,3.8
			c-0.8,0.7-1.9,0.9-2.9,0.4c-1.2-0.6-1.8-2.2-1.1-3.4c0.5-1.1,0.9-2.1,1.2-3.3c-0.8-0.4-1.6-0.9-2.4-1.4c-1.5,1.8-3.2,3.4-5.2,4.7
			c-0.9,0.5-2.1,0.5-2.9-0.2c-1.1-0.9-1.3-2.5-0.4-3.6c1.4-1.7,2.3-3.7,2.9-5.7c-0.1-0.2-0.3-0.3-0.4-0.5c-0.1-0.1-0.2-0.3-0.4-0.4
			c-2.4,1.9-5.2,3.4-8.1,4.2c-2.7,0.7-4.4-3-2-4.6c2.1-1.4,3.7-3.2,5-5.3c0.2-0.4,0.5-0.7,0.8-0.9c-1.6-3.1-2.6-6.3-3.2-9.6
			c-0.3-1.6,0.8-3.2,2.5-3.5c1.3-0.2,2.5,0.4,3.1,1.5c4.9,8.5,11.8,15.9,21.4,17.7c9.6,1.8,18.8-2.2,26.9-7.9
			c1.4-0.9,3.2-0.6,4.2,0.8c0.7,1,0.7,2.4,0,3.3C1370.3,338.5,1365.5,342.9,1359.7,345.6z M1429.3,406.6
			c-11.3,10.9-29.6,11.7-43.5,6.1c-5.8-2.5-11.4-6.5-13.7-12.7c-0.9-2.6,2.6-4.4,4.2-2.2c9,10.4,29.9,11.4,42.2,7.1
			c4.6-1.7,8.8-4.4,11.6-8.5c0.7-1.1,2.3-1.4,3.4-0.6C1436.5,397.9,1431.1,404.8,1429.3,406.6z M1446.8,332.6
			c-0.5-1.6,0.3-3.3,1.9-3.8c1.3-0.4,2.6,0,3.3,1c7.4,9.6,17.2,17,29,19c11.8,2.1,23.2-2.1,32.5-9.9c2.6-2.1,6.2,1.1,4.4,3.9
			c-1.1,1.9-2.4,3.6-3.8,5.1c1.2,1.6,2.6,2.9,4.3,4.1c2.8,1.9,0.8,6.2-2.4,5.4c-2.9-0.7-5.6-2.1-8.1-3.9c-0.7,0.5-1.3,0.9-2,1.3
			c0.7,2,1.7,3.8,3,5.5c1,1.3,0.8,3.2-0.4,4.2c-1,0.8-2.4,0.9-3.5,0.2c-2.6-1.6-4.9-3.8-6.7-6.3c-0.8,0.3-1.7,0.5-2.5,0.7
			c0.3,1.9,0.8,3.8,1.8,5.6c0.7,1.5,0.2,3.3-1.3,4c-1.2,0.6-2.5,0.3-3.4-0.5c-2.2-2.2-4.1-4.9-5.4-7.8c-10.1,0.5-20.5-2.8-28.6-10
			C1453.3,345.7,1449,339.4,1446.8,332.6z M1491.9,409.6c-16.1-1.5-29.2-10.5-29.2-20.2c0-9.7,13.1-16.3,29.2-14.8
			c16.1,1.5,29.2,10.5,29.2,20.2C1521.1,404.4,1508.1,411.1,1491.9,409.6z M1525.4,292.3c-1.1,0.9-2.8,0.8-3.8-0.2
			c-7.3-7.8-15.4-14.8-24.6-19.6c-9-4.7-19.1-7-29.2-5.8c-6.4,0.5-7.2-8.9-0.8-9.4c23.9-1.6,44.4,13.4,58.7,31.1
			C1526.8,289.6,1526.6,291.3,1525.4,292.3z"/>
	</g>
	<g>
		<path fill="#69453A" d="M1587.6,297.5c-7.2-2.6-14.4-5.3-21.5-8.3c6.6,22,18.5,38.8,36.4,50.9c-7.8-127.5-68.1-179.5-119.7-200.6
			c-18.7-7.6-38.3-10.6-57.4-9.4c64.6,4.5,106.7,41.4,138.2,93.7c-31.5-5.5-58.3-14.8-80.1-28c-2.7-1.7-6,1.3-4.6,4.1
			c2.2,4.6,5,8.8,8.1,12.7c0.9,1.2-0.3,2.8-1.7,2.2c-22.9-9.9-40.7-25.8-54.3-46.8c1.3,3.2,2.8,6.3,4.5,9.3
			c31.3,55.4,99.4,86.9,154.2,115C1592.6,293.9,1591,298.6,1587.6,297.5z"/>
		<path fill="#69453A" d="M1569.3,452.1c-5.4,4.9-11.1,9.3-17.1,13.3c0.3,6.9,1.3,13,3.1,18.5c18.3-17.2,32.1-38.9,40.2-62.9
			C1588.1,432.5,1579.3,443,1569.3,452.1z"/>
		<path fill="#69453A" d="M1306.1,239.2c-3.8,18.4-4.6,38-2.2,58.1c0.1-7.4,0.6-14.7,1.9-22c2.1-12.7,6.1-25,11.6-36.5
			c-1.7,1.2-3.4,2.4-5,3.6c-2.2,1.7-4.9-0.6-4.5-2.8c0.1-0.5,0.4-1.1,0.9-1.5c26.9-23.2,60.3-37.7,87.1-60.7
			c6.5-5.7,12.4-11.9,16.9-18.9c-25.5,23.3-62.7,44.6-101.5,61.6C1309.2,226.2,1307.5,232.6,1306.1,239.2z"/>
	</g>
</g>
<g>
	<path fill="#F2E7CE" d="M718.9,321.8c-2.1,5.5-4.4,10.9-7,16.3c-4.6-9.8-12.5-20-23.2-30.2l0,0c2.2-5.5,4.1-10.9,5.9-16.1
		C705.8,301.9,714.1,312.1,718.9,321.8z"/>
	<path fill="#FEFEFE" d="M694.6,291.6c-1.8,5.3-3.7,10.7-5.9,16.1l0,0c-22.3-21.4-56.9-43.1-100.5-62.4
		c-25.5-11.3-53.4-21.3-81.7-29.1c-0.1,0-0.1,0-0.2-0.1c-68.7-18.8-140.2-24.4-187.7-2.8c0.7-4.5,1.5-8.9,2.5-13.3
		c25.1-12.5,60.2-17.6,102-14.6c39.8,2.8,84.6,12.7,129.6,28.5C612.9,235.3,664.3,263.8,694.6,291.6z"/>
	<g>
		<path fill="#F5D07F" d="M682.5,139.3c-47.5-49.4-119.5-79.8-193.2-79.8c-0.3,0-0.6,0-0.9,0C445.4,59.6,405.2,75.1,375,103
			c-26.1,24.2-43.8,55.4-52.7,91.3c25.7-11.8,59.6-16.4,100.9-13.4c40.2,2.9,85.4,12.8,130.8,28.8c59.8,21,110.9,49.3,142,77.2
			C714.2,228.3,706.2,180.6,682.5,139.3z"/>
		<path fill="#F5D07F" d="M674.3,808.9c1.3-9.2-0.8-17.1-5.6-23.9c-0.5-0.4-0.9-1-1.2-1.6c-1.8-2.3-4-4.4-6.4-6.4
			c-2.3-2-4.7-3.8-7.2-5.6c-2.8-2-0.1-6.3,2.9-4.7c3.5,1.9,6.8,4,9.8,6.3C660.9,680,649,608.2,632,564.9
			c-6.1-15.7-16.1-29.1-28.7-38.9c-5.9-4.5-12.1-8.1-18.6-10.7c-20.9,22.8-51.1,41.9-94.7,55.5h0c0,0.9,0,1.7,0,2.6
			c3.7,13,3.9,27.1,2.4,40.4c-0.2,2.4-0.6,4.7-0.9,7.1c8.6,3.2,17.7,6.2,26.6,9c5.1,1.7,10.3,3.3,15.3,5.2c1.5-4.5,3.3-9.1,5.1-13.4
			c7.6-17.5,16.9-34.2,27.8-49.8c2-2.7,6.1-0.2,4.6,2.8c-9,16.3-17.1,33.1-23.4,50.6c0,0-3.1,8.4-4.9,13.5c0.8,0.4,1.7,0.8,2.5,1.2
			c8.9,4.2,16.9,10.7,22.9,18.5c1.9,2.5-1.4,5.8-3.9,3.6c-3.5-3-6.9-5.8-10.7-8.2c-11.6-7.3-24.8-10.4-38-14.6
			c-8.1-2.5-16.2-5.1-24.2-7.8c-9.3,11.6-14.7,27.5-18.5,43.7c0,0.4-0.1,0.8-0.3,1.2c-0.5,2.1-0.9,4.2-1.3,6.3
			c20.6,11.4,42.5,18.6,65.7,22c17.6,2.5,35.4-3.4,47.8-16.1c19.4-19.9,36-44.5,49.9-73.8c0.2-1.1,0.4-2.3,0.6-3.4
			c0.6-3,5.2-2.6,5,0.6c-0.5,8.2-1.3,16.4-2.7,24.5c-1.4,9-3.3,17.9-6,26.6c0,0,0,0,0,0c-23.4,97.4-81.7,115.1-166.2,72.7
			c-11.4-5.7-19.8-16.1-22.9-28.6c-3.5-14.2-4.4-28.9-2.3-44.2c-1.5-0.9-2.9-1.7-4.4-2.5c-2.2-1.2-4.4-2.6-6.4-4.1
			c-0.1,0.7-0.2,1.4-0.3,2.1c0,0.1,0,0.1,0,0.2c-3.1,23-7.2,46-12.6,68.7c0,0,0,0,0,0c0,0,0,0,0,0.1c-1.5,6.2-3,12.4-4.7,18.5
			c16.8,16.4,37.1,29.5,60.3,33.6c7.9,1.4,15.9,1.8,24,1.1c21.1-8.9,44.6-13.7,66.4-9.4c9.8,1.9,19.2,5.3,28,10
			c8.4,4.7,16.1,10.2,24.3,15.2c15.9,10,32,19.7,48.4,28.8c3.7,2,7.5,4,11.3,5.9c0,0,0.1,0.1,0.3,0c0.1-0.1,0.2-0.1,0.2-0.3
			c-0.4-4.7-0.7-9.7-0.5-14.3C673.9,813.8,674.1,811.2,674.3,808.9z"/>
	</g>
	<path fill="#E85A6C" d="M436.4,445.5c-0.2,1-0.5,1.9-1,2.7c-2.4,4.1-6.9,6.9-12.2,7.6c-2.9,0.4-5.7-0.8-7.7-3
		c1.2-7.5,4-12.4,7.7-13.6C426.7,438.1,431.4,440.3,436.4,445.5z"/>
	<g>
		<path fill="#A89D89" d="M585.1,790.1c-18.4-9.9-40.2-13.1-60.7-9.1c-8.9,1.5-17.6,3.9-26.1,6.9c-0.5,0.3-1.1,0.6-1.8,0.7
			c-3.2,1.1-6.4,2.4-9.5,3.7l0,0c-6.1,4.7,6,9.8,23.7,4.2c0,0,0.1,0,0.1,0c1.7-0.5,3.3-1.1,5-1.6c3.3-1,5.1,3.7,2,5.1
			c-39.7,17.4-81.3,30.7-123.7,40.1c-0.2,1.3-0.4,2.7-0.6,4c0,0.3,0,0.6-0.1,0.8c-1.8,12.9-1.7,26,0.9,38.4
			c92.5-10.2,220,23.3,247-58.8C622.2,813.6,604,801.4,585.1,790.1z"/>
		<path fill="#A89D89" d="M420.9,822.7c2.9-0.8,5.8-1.6,8.7-2.4c-11.4-15-24.3-29.2-37.4-42.8c-5-5.2-10-10.3-15.1-15.5
			c-2.3-2.3,1-5.9,3.5-3.7c3.6,3.2,7.2,6.4,10.8,9.7l0,0c12.9,7,33.5,11.9,37.6,3.6c-9.2-5.8-17.8-12.7-25.6-20.3
			c-31.5-13.2-57.2-17.3-78.7-12.5c-16.3,3.6-29.3,14.7-34.7,29.7c-2.8,7.7-3.2,15.7-1.3,23.9C313.4,823.7,360.7,830.2,420.9,822.7
			L420.9,822.7z"/>
	</g>
	<g>
		<path fill="#E8AC51" d="M730.6,242.2c-1.4-26.3-9.6-51.3-23.5-72.3c-7.2-10.8-15.4-21-24.6-30.5c23.7,41.3,31.8,89,13.6,147.5
			c11,9.8,19.4,19.6,24.9,29C728.8,292.8,732,268.2,730.6,242.2z"/>
		<path fill="#E8AC51" d="M536.5,704.5c-23.2-3.3-45.1-10.5-65.7-22h0c-1.7,8.3-3,16.6-4.3,24.1c41.8,27.1,93.7,41.3,131-1
			c18.4-21.5,28.7-51.1,34.3-78.7c0.9-4.1,1.6-8.3,2.4-12.4c-13.9,29.3-30.6,53.9-49.9,73.8C571.8,701.1,554,707,536.5,704.5z"/>
		<path fill="#E8AC51" d="M592,723.5c-15.6,12.6-35.9,19.2-55.9,18.5c-28.1-1.5-54.4-14-77.5-29.1c-1.6-1.1-2.3-2.9-2-4.7
			c1.7-10.5,3.5-21,5.8-31.5c-7.3-4.8-15-9.4-22.6-13.9c-2.1,15.2-1.2,29.9,2.3,44.2c3.1,12.4,11.5,22.8,22.9,28.6
			c84.5,42.4,142.8,24.7,166.2-72.7c-1.4,4.5-2.9,9-4.7,13.4C619.4,694.5,607.2,711.1,592,723.5z"/>
		<path fill="#E8AC51" d="M584.7,515.3c-5.4-2.2-11-3.7-16.7-4.5c-25.3,19.7-52.5,26.7-72.8,26.9c-3.3,10.2-5,21.1-5.2,33h0
			C533.6,557.2,563.8,538.1,584.7,515.3z"/>
		<path fill="#E8AC51" d="M466.4,578.6c-0.2-4.6-1.1-9.1-2.5-13.5c-3.6-11.2,10.2-18.1,17.8-10c0.8-6.2,2.1-12.2,3.8-17.9
			c-0.2,0-0.4,0-0.6-0.1c-10.4-1.3-18.8-4.6-24.1-9.4c-6.2,2.5-11.6,5.1-16.4,7.8c0.3,0.4,0.5,0.8,0.7,1.2
			C451.7,550.8,458.8,565.2,466.4,578.6z"/>
		<path fill="#E8AC51" d="M399.8,675.5c-4.9,10.4-13.2,22.2-25.5,24c-1.5,0.2-2.9-0.9-3-2.5c-0.2-1.4,0.8-2.7,2.1-3
			c2.5-0.8,4.8-2.3,6.9-4.1c-2.7-1.6-5.5-3.2-8.3-4.9c-1.4,5.6-2.1,10.9-2,15.9c11.2,10.1,23.9,16.8,37.9,19.9
			c4.5-19.9,8.1-40.1,11-60.3c-4.5-2.5-9.1-5.3-13.7-8.3C405.3,660.2,403,668.2,399.8,675.5z"/>
	</g>
	<g>
		<path fill="#877961" d="M641.3,824.5c-27,82.1-154.5,48.6-247,58.8c1.7,7.9,4.4,15.6,8.3,22.7c0,0,0.1,0.1,0.1,0.2
			c2.3,4.2,5,8.1,8.2,11.9c11.8-1.5,23.6-1.8,35.3-1.7c24.9,0.3,49.7,1.8,74.5,2c12.1,0.1,24.2-1,36-3.3
			c34.7-6.6,83.4-30.2,102.3-60.8c3-5.1,5.4-10.7,6.8-16.4C657.4,833.8,649.3,829.2,641.3,824.5z"/>
		<path fill="#877961" d="M439.4,817.7c15-4.1,30-8.3,44.9-12.8c8.8-2.7,17.6-5.5,26.4-8.3c-17.7,5.6-29.8,0.5-23.7-4.2
			c-5,2.1-9.8,4.4-14.6,6.8c-3,1.5-5.8-2.8-2.8-4.9c2.9-1.9,6-3.7,9.1-5.4c-17.7-1.4-34.5-7.8-49.6-17.2c-4.1,8.3-24.7,3.5-37.6-3.6
			l0,0c7.2,6.5,14.2,13.1,21.1,19.9C422,797.3,431.2,807,439.4,817.7z"/>
		<path fill="#877961" d="M288.7,792.3c3.2,13.7,13.1,28.1,29.7,43.6c3.8,0.2,7.7,0.7,11.6,1.3c19.8,3.4,37.8,4.2,54.6,2.3
			c0.2-1.4,0.5-2.9,0.7-4.3c0.3-1.8,1.7-3.2,3.3-3.7c10.7-3.1,21.4-6,32.2-8.9C360.7,830.2,313.4,823.7,288.7,792.3z"/>
	</g>
	<g>
		<path fill="#292418" d="M707.4,364.8c2.7-4.1,5.2-8.2,7.6-12.4c0.1-0.1,0.1-0.2,0.2-0.3c18.7-33.2,27-70.3,24.8-110.4
			c-1.5-27.9-10.2-54.6-25.1-77c-21.8-32.9-53.9-61.2-92.8-81.7C581,61.2,534.7,49.8,488.3,50c-45.3,0.2-87.8,16.5-119.7,46
			c-34.3,31.8-54.9,75-60.6,124.9c0,0.2,0,0.4-0.1,0.5c-3.6,32.1-1.1,66.9,7.8,103.2c-0.4,3.3-0.8,6.5-1.4,9.8
			c-2.2,10.5-4.3,21.2-5.5,31.9c-3.5,26.5-0.7,54.4,13.4,77.5c6.6,11.7,16,21.6,26.2,30.2c30.3,25.3,68.9,40.2,108.2,43.5
			c0.2,0,0.5,0,0.7,0.1v1.1c-8.1,3.2-14.9,6.6-20.8,10.3c-3-1.1-6.3-1.3-9.4-0.5c-5.7,1.8-11.1,4.7-15.7,8.5
			c-7.9,6.6-13.2,15.9-16.4,25.5c-1.7,4.9-3,10-2.9,15.3c0,2.3,0.2,4.5,0.7,6.8c0.5,2.7,1.2,5.5,1.9,8.2c2.3,9.2,5,18.4,8.3,27.4
			c3.5,10.6,9.4,20.5,17.3,28.4c-0.1,0.5-0.1,1-0.2,1.5c-7.3-4.2-14.9-9.2-22.6-14.7c1.8-14.5-0.8-24.3-3.6-34.7
			c-1.3-4.9-2.7-9.9-3.7-15.7c-0.6-3.2-1-6.8-1.3-10.6c-0.4-5.5-4.6-10-10-10.8l-0.1,0c-3.3-0.5-6.6,0.6-9,2.8
			c-1.8,1.6-3,3.8-3.4,6.1c-4.9-9.5-9.4-19.2-13.5-28.9c-3.5-8.4-12.7-12.6-21.4-9.9c-13.7,4.3-23.6,14-29.5,28.9
			c-3.8,9.6-4.6,20.3-2.3,30.9c3.3,15.3,9.8,30.5,19.3,45.3c7.2,11.2,16.6,21,27.9,29.1c5.8,4.2,11.3,8,16.7,11.5
			c-2.4,8.3-3.4,16.1-3.1,23.6c0.1,1.2,0.6,2.4,1.5,3.2c12.8,12,27.4,19.8,43.6,23.5c-0.9,3.6-1.8,7.2-2.7,10.7
			c-31.4-12.6-57.7-16.3-80.2-11.3c-19.5,4.3-35,17.7-41.5,35.7c-8.2,22.6-0.3,45.9,24,70.9c-2.2,0.2-4.4,0.4-6.5,0.8
			c-4.3,0.7-8.7,1.5-13.1,2.6c-11.7,2.7-21.1,11.9-23.8,23.4c-3.6,15.2-2.4,28.8,3.5,39.3c4.9,8.7,14.3,14,24.2,14
			c1.5,0,3-0.1,4.5-0.4c36.7-5.9,68.2-6.9,101.8-3c2.8,4.8,6.1,9.3,9.8,13.5c1,1.2,2.6,1.8,4.2,1.6c12-1.3,24.2-1.5,36.5-1.4
			c24.8,0.3,49.6,1.7,74.5,1.9c12.7,0.1,25.5-1.1,38-3.6c37.3-7.3,88.3-32.4,108.5-65.5c3.4-5.8,6.1-12,7.7-18.5
			c5-0.6,9.5-5,9.1-10.5c0-1.2-0.2-1.7-0.3-2.6c-0.7-6.8-0.9-13.6-0.4-20.4c0.5-9.6-2.2-17.6-6.9-24.3c0.2-0.5,0.3-1.1,0.2-1.7
			c-5.5-98.2-17.8-174.1-35.7-219.7c-6.8-17.3-17.8-32.2-31.8-43c-11.7-9-24.6-14.7-38.3-16.9l-0.3-1.6c9.8-3.8,19.2-8.3,28.2-13.8
			c13-7.9,25.4-17.5,35.2-29.3c44.8,17.3,104.7-26,86.3-75.3C717.5,374.6,713,369,707.4,364.8z M375,103
			c30.1-27.9,70.4-43.3,113.3-43.5c0.3,0,0.6,0,0.9,0c73.7,0,145.7,30.4,193.2,79.8c9.1,9.5,17.4,19.7,24.6,30.5
			c14,21,22.1,46.1,23.5,72.3c1.4,26-1.8,50.6-9.5,73.6c-5.5-9.4-14-19.2-24.9-29c-31.1-27.9-82.3-56.2-142-77.2
			c-45.4-16-90.6-25.9-130.8-28.8c-41.3-3-75.2,1.6-100.9,13.4C331.2,158.3,348.9,127.1,375,103z M321,200.1
			c25.1-12.5,60.2-17.6,102-14.6c39.8,2.8,84.6,12.7,129.6,28.5c60.4,21.2,111.7,49.8,142,77.6c11.2,10.3,19.5,20.5,24.4,30.1
			c-2.1,5.5-4.4,10.9-7,16.3c-4.6-9.8-12.5-20-23.2-30.2c-22.3-21.4-56.9-43.1-100.5-62.4c-25.5-11.3-53.4-21.3-81.7-29.1
			c-0.1,0-0.1,0-0.2-0.1c-68.7-18.8-140.2-24.4-187.7-2.8C319.2,208.9,320,204.5,321,200.1z M635.7,344.5c-1.8-5.6-5-10.7-7-16.1
			c-7.5-18.3-10.5-38.2-10.7-57.9c48.8,26.1,81.4,54.8,88.1,78.7c-2.1,3.7-4.4,7.3-6.8,10.9c-11.9-5.3-26.4-5.5-38.6-0.3
			c-8.7,3.6-16.1,9.8-21.5,17.4c-1.9,0.7-3.7,1.3-5.6,1.8C638.1,368.1,639.5,355.8,635.7,344.5z M407.6,209.3
			c9.8,0.4,20,1.3,30.6,2.7c15.5,2,31.6,5,48,8.9c-28.3,6.8-57.4,10.4-86.6,9.9c4-4.7,7.3-9.9,9.9-15.4
			C410.6,213,409.5,210.4,407.6,209.3z M316,240c0.2-5.2,0.6-10.3,1.1-15.3c21.5-11.3,50.7-16.5,85.7-15.6
			c-27.7,9.5-54.9,20.5-83,29c-1.1,0.4-1.6,1.1-1.7,2c-0.2,1.5,1,3.3,3,2.9c0.8-0.1,1.5-0.3,2.3-0.4c-3,11.1-5.1,22.6-6.2,34.1
			C315.9,264.1,315.5,251.9,316,240z M460.7,527.8c5.2,4.8,13.6,8.1,24.1,9.4c0.2,0,0.4,0,0.6,0.1c-1.7,5.8-2.9,11.7-3.8,17.9
			c-7.5-8.1-21.4-1.2-17.8,10c1.3,4.4,2.2,8.9,2.5,13.5c-7.5-13.4-14.7-27.8-21.3-41.8c-0.2-0.4-0.5-0.8-0.7-1.2
			C449.1,532.8,454.6,530.3,460.7,527.8z M411.8,617.2c-3.2-8.6-5.7-17.5-8-26.5c-1-4.2-2.3-8.3-2.3-12.7c0-1.2,0.1-2.4,0.2-3.6
			l15.4,27.3c0.7,1.2,2.2,1.7,3.4,1.1c1.4-0.6,2-2.2,1.4-3.6c0,0-4.7-10.7-9.1-20.7c-3.5-7.9-6.8-15.3-7.5-16.9
			c0.9-2.3,2-4.5,3.3-6.7c5.8,11.5,18.6,37.2,18.6,37.2c1.7,3.1,6.3,1,5.1-2.3L415,546.7c0.8-0.8,1.6-1.5,2.4-2.2
			c0.6-0.5,1.3-1,2-1.5c5,9.8,20.5,40.2,20.5,40.2c1.6,3.1,6.2,1,5-2.3l-17.3-42.3c0.2-0.1,0.4-0.2,0.6-0.3c3-1.5,7-0.2,8.5,2.9
			c1.1,2.3,3.7,7.9,4.8,10.2c5.6,11.6,11.7,23.3,18,34.6c0.4,0.8,0.9,1.6,1.5,2.3c5.1,5.9,15,1.9,14.9-5.7c0-1.1,0-2.3,0-3.4
			c-0.1-5.5-1.5-12.6-3-17.4c0.1-0.7,1.3-0.3,1.6,0.1c0,0.1,0.1,0.1,0.1,0.2l0.1,0.2c1.9,3.3,3.5,7.1,4.7,10.7
			c4.1,12.5,4.2,26.5,2.7,39.7c-0.5,4.8-2,9.7,0.5,13.6c-7.2,9.2-11.7,19.9-15.2,30.8c-0.7,2.3-1.4,4.6-2.1,6.8
			c-0.3,1-0.5,2-0.8,3.1c-8.1-5.2-16.4-10.1-24.8-14.8c-3.6-1.9-6.8-4.3-9.8-6.9c-0.4-0.3-0.7-0.6-1.1-0.9c-0.3-0.4-0.6-0.7-1-0.9
			C420.5,636.2,415,627.1,411.8,617.2z M352.4,660.5c-4-2.9-7.8-6-11.3-9.4c-5.5-5.2-10.2-11-14.2-17.2c-8.9-13.8-14.9-27.9-18-42.1
			c-0.7-3.4-1.1-6.7-1.1-10c7.1,9.7,18.2,24.7,18.2,24.7c2.1,2.8,6.4,0,4.7-3.1L310,568.7c0.3-0.8,0.5-1.6,0.8-2.4
			c0.9-2.4,2-4.6,3.1-6.6c6.3,11.1,20.6,36,20.6,36c1.8,3,6.3,0.7,4.9-2.5l-19.3-41.6c1.7-1.8,3.6-3.3,5.7-4.6
			c4.9,9.3,20.1,38.1,20.1,38.1c1.6,3,6.1,0.9,4.8-2.3l-16.6-39.7c0.1,0,0.1,0,0.2-0.1c4-1.2,8.2,0.7,9.8,4.6
			c6,14.2,12.9,28.4,20.5,42.1c1.5,2.7,4.6,3.9,7.6,3c3-1,4.8-3.8,4.4-6.9c-0.5-3.8-0.8-7.5-1-10.9c0-0.7,0.3-1.1,0.5-1.3
			c0.2-0.2,0.7-0.5,1.3-0.4l0.1,0c1,0.1,1.8,1,1.9,2.1c0.8,11.8,3.2,20.5,5.3,28.2c3,10.9,5.3,19.5,3,33.6c-0.3,1.8,0.4,3.5,1.9,4.6
			c0.5,0.4,1,0.7,1.5,1.1c0.9,0.7,1.9,1.4,2.8,2c2.6,8.6,0.7,18.8-2.4,27.3c-1.4,3.4-3.1,7.1-5.2,10.5l-0.7-0.4
			c-0.1-0.1-0.2-0.1-0.2-0.1C375.1,676.1,364.3,669.1,352.4,660.5z M369.9,700.9c-0.1-5.1,0.6-10.4,2-15.9c2.8,1.7,5.6,3.4,8.3,4.9
			c-2,1.8-4.3,3.3-6.9,4.1c-1.3,0.3-2.3,1.6-2.1,3c0.2,1.5,1.5,2.6,3,2.5c12.3-1.8,20.6-13.6,25.5-24c3.2-7.2,5.5-15.2,5.3-23.2
			c4.6,3,9.2,5.8,13.7,8.3c-2.8,20.3-6.4,40.4-11,60.3C393.8,717.7,381.1,711,369.9,700.9z M292.3,906.3c-3.3,0.5-6.7,0.2-9.7-1
			c2.1-0.9,3.9-1.7,3.9-1.7c2.1-0.9,1.4-4.1-0.8-4.1l-11.2-0.2c-0.4-0.6-0.8-1.2-1.2-1.8c-0.3-0.6-0.6-1.1-0.9-1.7
			c4.8-1.1,11.3-2.6,11.3-2.6c2.2-0.5,2-3.8-0.3-4.1l-13.6-1.4c-0.3-1.6-0.5-3.2-0.7-4.8l16.4-1.2c0.9-0.1,1.8-0.8,1.9-1.8
			c0.2-1.2-0.6-2.3-1.7-2.5l-16.5-3c0.2-1.8,0.4-3.7,0.8-5.6c6.4,0.4,18.7,1.1,18.7,1.1c2.5,0.1,3.2-3.5,0.7-4.3l-17.1-5.1
			c2.9-5.9,8.5-10.4,15.1-11.9c4.2-1,8.4-1.8,12.4-2.4c9.1-1.4,18.7-1.3,28.4,0.4c19.8,3.4,37.9,4.3,54.9,2.6
			c-0.8,8.3-1,16.7-0.1,25c0.3,2.9,0.7,5.8,1.2,8.7c1.2,6.8,3.2,13.4,6,19.7C358.6,899.5,327.1,900.7,292.3,906.3z M659,854.3
			c-18.9,30.6-67.6,54.2-102.3,60.8c-11.9,2.3-24,3.4-36,3.3c-24.8-0.2-49.6-1.7-74.5-2c-11.7-0.1-23.5,0.2-35.3,1.7
			c-3.2-3.7-5.9-7.7-8.2-11.9c0-0.1-0.1-0.1-0.1-0.2c-3.9-7.1-6.6-14.8-8.3-22.7c-2.6-12.4-2.7-25.5-0.9-38.4
			c0.1-0.3,0.1-0.5,0.1-0.8c0.2-1.3,0.4-2.7,0.6-4c42.3-9.4,83.9-22.7,123.7-40.1c3.1-1.5,1.3-6.1-2-5.1c-1.7,0.5-3.3,1.1-5,1.6
			c0,0-0.1,0-0.1,0c-8.8,2.8-17.6,5.6-26.4,8.3c-14.9,4.5-29.9,8.7-44.9,12.8c-8.1-10.7-17.4-20.3-26.9-29.7
			c-6.9-6.8-13.9-13.4-21.1-19.9c-3.6-3.3-7.2-6.5-10.8-9.7c-2.5-2.1-5.8,1.4-3.5,3.7c5.1,5.1,10.1,10.3,15.1,15.5
			c13.1,13.6,26,27.8,37.4,42.8c-2.9,0.8-5.8,1.6-8.7,2.4h0c-10.7,2.9-21.5,5.9-32.2,8.9c-1.7,0.5-3,1.9-3.3,3.7
			c-0.3,1.4-0.5,2.9-0.7,4.3c-16.8,1.9-34.7,1.1-54.6-2.3c-3.9-0.7-7.7-1.1-11.6-1.3c-16.6-15.5-26.5-29.9-29.7-43.6
			c-2-8.2-1.5-16.2,1.3-23.9c5.4-14.9,18.4-26,34.7-29.7c21.5-4.8,47.2-0.7,78.7,12.5c7.8,7.7,16.4,14.6,25.6,20.3
			c15.1,9.4,31.9,15.8,49.6,17.2c-3.1,1.8-6.2,3.6-9.1,5.4c-3,2.1-0.2,6.4,2.8,4.9c4.8-2.4,9.7-4.7,14.6-6.8l0,0
			c3.1-1.3,6.3-2.6,9.5-3.7c0.7-0.1,1.3-0.3,1.8-0.7c8.5-3,17.2-5.3,26.1-6.9c20.5-4,42.3-0.8,60.7,9.1
			c18.8,11.2,37.1,23.4,56.2,34.3c8,4.7,16.1,9.3,24.5,13.4C664.4,843.6,662,849.2,659,854.3z M584.7,515.3
			c6.5,2.6,12.7,6.2,18.6,10.7c12.7,9.7,22.6,23.2,28.7,38.9c17,43.3,28.9,115.1,34.5,208.1c-3-2.3-6.3-4.4-9.8-6.3
			c-3-1.6-5.7,2.7-2.9,4.7c2.5,1.8,4.9,3.6,7.2,5.6c2.5,2,4.6,4.2,6.4,6.4c0.3,0.6,0.7,1.2,1.2,1.6c4.8,6.8,6.9,14.7,5.6,23.9
			c-0.2,2.4-0.4,5-0.5,7.3c-0.2,4.7,0.1,9.7,0.5,14.3c0,0.2-0.1,0.2-0.2,0.3c-0.1,0.1-0.2,0.1-0.3,0c-3.7-1.9-7.6-3.9-11.3-5.9
			c-16.4-9.1-32.5-18.8-48.4-28.8c-8.2-5-15.9-10.5-24.3-15.2c-8.8-4.7-18.2-8.1-28-10c-21.8-4.3-45.3,0.5-66.4,9.4
			c-8,0.7-16.1,0.3-24-1.1c-23.2-4.1-43.5-17.2-60.3-33.6c1.6-6.1,3.2-12.3,4.7-18.5c0,0,0-0.1,0-0.1c0,0,0,0,0,0
			c5.3-22.7,9.4-45.6,12.6-68.7c0,0,0-0.1,0-0.2c0.1-0.7,0.2-1.4,0.3-2.1c2,1.5,4.2,2.9,6.4,4.1c1.5,0.8,2.9,1.7,4.4,2.5
			c7.6,4.4,15.3,9,22.6,13.9c-2.3,10.5-4.1,21-5.8,31.5c-0.3,1.8,0.5,3.6,2,4.7c23.1,15.2,49.4,27.7,77.5,29.1
			c20,0.7,40.3-5.9,55.9-18.5c15.2-12.5,27.4-29,34.5-47.3c1.8-4.4,3.3-8.9,4.7-13.4c0,0,0,0,0,0c2.6-8.7,4.6-17.6,6-26.6
			c1.4-8.1,2.1-16.3,2.7-24.5c0.2-3.2-4.4-3.7-5-0.6c-0.2,1.1-0.4,2.3-0.6,3.4c-0.7,4.1-1.5,8.3-2.4,12.4
			c-5.7,27.5-15.9,57.1-34.3,78.7c-37.3,42.3-89.2,28.1-131,1c1.3-7.6,2.6-15.8,4.3-24.1h0c0.4-2.1,0.9-4.2,1.3-6.3
			c0.2-0.4,0.2-0.8,0.3-1.2c3.8-16.2,9.2-32.1,18.5-43.7c8,2.8,16.1,5.3,24.2,7.8c13.3,4.3,26.4,7.3,38,14.6
			c3.7,2.4,7.2,5.2,10.7,8.2c2.5,2.2,5.8-1.1,3.9-3.6c-5.9-7.8-14-14.3-22.9-18.5c-0.8-0.4-1.7-0.8-2.5-1.2
			c1.9-5.1,4.9-13.5,4.9-13.5c6.4-17.5,14.4-34.3,23.4-50.6c1.6-3-2.6-5.6-4.6-2.8c-10.9,15.6-20.2,32.3-27.8,49.8
			c-1.8,4.2-3.6,8.9-5.1,13.4c-5.1-1.9-10.2-3.5-15.3-5.2c-8.9-2.9-18-5.9-26.6-9c0.3-2.3,0.7-4.7,0.9-7.1
			c1.5-13.3,1.3-27.3-2.4-40.4c0-0.9,0-1.7,0-2.6c0.2-11.9,2-22.8,5.2-33c20.3-0.2,47.5-7.3,72.8-26.9
			C573.8,511.6,579.3,513.1,584.7,515.3z M703.9,426.7c-15,19.9-43.3,29.8-67,21.1c0,0-0.1,0-0.1,0c-0.8-0.3-1.7-0.6-2.5-1
			c-1.8,0-4.2-0.3-5.5,1.4c-20.3,23.9-47,41.7-76.4,52.6c-3.1,1.3-1.4,5.6,1.6,4.8c2.5-0.7,5-1.5,7.5-2.3l0.1,0.6
			c-27.4,21-56.9,26.2-75.6,23.9c-8.6-1.1-15.6-3.8-19.2-7.4v-2c14,0.5,28.1-0.3,41.8-2.6c1.3-0.2,2.3-1.4,2.2-2.8
			c-0.1-1.5-1.3-2.6-2.8-2.6c-27.9,1.6-56.9-0.7-84.1-8.3c-29.2-8.1-56.3-22.2-78.1-44c-32.5-33.5-31.9-72.5-23.2-115.5
			c1.9-8.5,3.1-17.5,3.3-26.2c0.1-4.4,0-8.8-0.3-13.2c-1.1-20.9,1.5-41.8,6.8-62.1c0-0.1,0-0.3,0-0.4c18.1-3.9,35.9-9.1,53.4-15
			c2.6-0.9,5.2-1.8,7.7-2.8c-2.4,3.1-5.2,6-8.2,8.5c-1,0.8-1.6,2-1.7,3.4c-0.1,2.6,1.9,4.8,4.5,5c19.9,1.1,39.9,0.3,59.7-2.3
			c14.7-1.9,29.3-4.7,43.6-8.3c4.5-1.1,9-2.3,13.4-3.6c26.7,7.4,53.7,17,79.4,28.4c8.4,3.7,16.4,7.5,24,11.4
			c-0.2,3.7-0.2,7.5-0.2,11.2c0.1,7.1,0.6,14.1,1.6,21.2c2.1,14.7,6.4,29.3,13.1,42.6c7,12.6,6.5,24.4,1.1,37.4
			c-2.7,5.5,2.4,12.1,8.4,10.2c3.4-1.3,6.5-3.2,9.3-5.4c0.2-0.1,0.5-0.3,0.7-0.5c0,0,0,0,0,0c0.2-0.2,0.3-0.3,0.5-0.5
			c5.8-6.5,12.9-11.6,20.8-14.3c15.4-5.3,35.6-1.9,44.8,12.6C717.3,394.4,714.3,413.5,703.9,426.7z"/>
		<path fill="#292418" d="M690.4,383.5c-8.9-5.2-21.2-2.5-28,4.8c-3.4,3.5-5.8,7.7-6.9,12.2c-0.2,0.8,0,1.7,0.7,2.3
			c1,0.9,2.5,0.9,3.4-0.1c2.5-2.8,4.3-5,7.2-7.5c3.1-2.5,6.7-4.6,10.4-5.4c7.1-1.7,13.8,1.5,18.8,6.9c0.7,0.8,1.8,1,2.7,0.6
			c1.2-0.5,1.8-1.9,1.3-3.2C698.1,390,694.8,386,690.4,383.5z"/>
		<path fill="#292418" d="M499.3,262.7c-6.4,0.6-5.6,10,0.8,9.4c10-1.2,20.2,1.1,29.2,5.8c9.2,4.8,17.3,11.8,24.6,19.6
			c1,1.1,2.7,1.2,3.8,0.2c1.2-1,1.3-2.7,0.4-3.9C543.7,276.1,523.2,261.1,499.3,262.7z"/>
		<path fill="#292418" d="M546.7,354.4c-9.3,7.7-20.7,12-32.5,9.9c-11.8-2-21.6-9.4-29-19c-0.7-1-2.1-1.5-3.3-1
			c-1.6,0.5-2.4,2.2-1.9,3.8c2.2,6.8,6.5,13,12.1,17.9c17.7,15.7,46.5,12.8,59.1-7.7C552.9,355.5,549.3,352.3,546.7,354.4z"/>
		<path fill="#292418" d="M439.5,436.1c-4.3-8-9.2-13.3-15.2-16.1c-3-1.4-6.5-1.5-9.6-0.3c-3,1.2-5.4,3.7-6.6,6.8
			c-2.7,7.3-2.2,15.7,1.3,25.1c0.4,1.1,1,2.2,1.7,3.1c0,0.1,0.1,0.1,0.1,0.2c2.6,3.5,6.7,5.7,11,5.7c0.5,0,1.1,0,1.6-0.1
			c6.7-0.9,12.6-4.6,15.7-9.9c0.9-1.6,1.5-3.5,1.8-5.4c0-0.2,0-0.4,0-0.7C441.5,441.7,440.9,438.8,439.5,436.1z M435.4,448.2
			c-2.4,4.1-6.9,6.9-12.2,7.6c-2.9,0.4-5.7-0.8-7.7-3c1.2-7.5,4-12.4,7.7-13.6c3.5-1.1,8.1,1.1,13.2,6.3
			C436.2,446.5,435.9,447.4,435.4,448.2z"/>
		<path fill="#292418" d="M409.8,394.8c-3.5-2.5-6.6-5.4-5.9-9.7c1.2-4.8,6.3-7.7,10.9-9.5c1.1-0.4,1.8-1.5,1.6-2.7
			c-0.2-1.3-1.5-2.1-2.8-1.9c-3,0.6-6.1,1.6-8.9,3.4c-10.8,6.8-9.4,20.9,3.1,24.7C410.3,399.8,412,396.4,409.8,394.8z"/>
		<path fill="#292418" d="M387.7,338.8c-8.1,5.7-17.3,9.8-26.9,7.9c-9.6-1.8-16.5-9.2-21.4-17.7c-0.6-1.1-1.8-1.7-3.1-1.5
			c-1.6,0.3-2.7,1.8-2.5,3.5c1,5.9,3.7,11.8,8,16.7c8.7,10.2,24.3,13.4,36.3,7.4c5.9-2.8,10.6-7.1,13.9-12.2c0.7-1,0.7-2.3,0-3.3
			C391,338.2,389.1,337.8,387.7,338.8z"/>
		<path fill="#292418" d="M340.8,280.9c2.7-3.4,5.7-6.6,9-9.3c6.5-5.4,14.4-8.4,22.8-8.9c4.1-0.3,8.4,0,12.6,0.5
			c2.7,0.4,5.3-1.6,5.4-4.4c0.2-2.6-1.8-4.9-4.4-5c-4.8-0.3-9.7-0.2-14.5,0.5c-14.8,1.8-27.3,11.2-35.2,23.4
			C334.5,280.7,338.6,283.6,340.8,280.9z"/>
	</g>
	<g>
		<path fill="#EDAF85" d="M630.9,445.2c-3.8-1.8-8.2-1.2-11.2,1.7c-59.8,56.5-126.2,66.6-195.8,55.2c27.2,7.6,56.2,9.9,84.1,8.3
			c1.5-0.1,2.8,1.1,2.8,2.6c0.1,1.4-0.9,2.6-2.2,2.8c-13.8,2.4-27.8,3.2-41.8,2.6v2c3.6,3.6,10.6,6.3,19.2,7.4
			c18.7,2.3,48.1-2.9,75.6-23.9l-0.1-0.6c-2.5,0.8-5,1.6-7.5,2.3c-3,0.8-4.6-3.5-1.6-4.8c29.3-10.9,56-28.8,76.4-52.6
			c1.3-1.7,3.7-1.3,5.5-1.4c0.8,0.4,1.7,0.7,2.5,1C634.8,447,632.8,446.1,630.9,445.2z"/>
		<path fill="#EDAF85" d="M608.2,276.7c-0.1-3.7,0-7.5,0.2-11.2c-7.7-3.9-15.7-7.7-24-11.4c-25.7-11.4-52.7-21-79.4-28.4
			c-4.5,1.3-8.9,2.5-13.4,3.6C532.8,243.1,572,258.7,608.2,276.7L608.2,276.7z"/>
		<path fill="#EDAF85" d="M439.9,652.2c8.3,4.7,16.6,9.6,24.8,14.8c0.3-1,0.5-2,0.8-3.1c0.7-2.3,1.3-4.6,2.1-6.8
			c-12.7-1.5-25.2-5.7-37.5-11.8C433.1,647.9,436.4,650.2,439.9,652.2z"/>
		<path fill="#EDAF85" d="M391.1,642.7c-13.5,11.5-30.8,12.5-49.9,8.5c3.5,3.3,7.2,6.5,11.3,9.4c11.9,8.6,22.7,15.6,33,21.4
			c0.1,0,0.2,0.1,0.2,0.1l0.7,0.4c2.1-3.4,3.9-7.1,5.2-10.5c3.1-8.5,5-18.7,2.4-27.3C393,644,392,643.4,391.1,642.7z"/>
		<path fill="#EDAF85" d="M383.2,874.3c-29.3,6.2-61.6,7.5-95.7,5.6c-0.2,1-1,1.7-1.9,1.8l-16.4,1.2c0.1,1.7,0.3,3.3,0.7,4.8
			l13.6,1.4c2.3,0.2,2.5,3.6,0.3,4.1c0,0-6.5,1.5-11.3,2.6c0.3,0.6,0.6,1.2,0.9,1.7c0.4,0.6,0.8,1.2,1.2,1.8l11.2,0.2
			c2.3,0,2.9,3.2,0.8,4.1c0,0-1.8,0.8-3.9,1.7c3,1.1,6.3,1.5,9.7,1c34.8-5.6,66.2-6.8,98.1-3.7c-2.7-6.3-4.8-13-6-19.7
			C383.9,880,383.5,877.2,383.2,874.3z"/>
	</g>
	<g>
		<path fill="#FFD2B3" d="M708.3,379.8c-9.2-14.5-29.3-17.9-44.8-12.6c-7.9,2.7-15,7.8-20.8,14.3c-0.1,0.2-0.3,0.3-0.5,0.5
			c0,0,0,0,0,0c-0.2,0.2-0.4,0.4-0.7,0.5c-2.8,2.3-5.9,4.2-9.3,5.4c-6,1.8-11.1-4.7-8.4-10.2c5.4-13,5.9-24.8-1.1-37.4
			c-6.7-13.3-11-27.9-13.1-42.6c-1-7-1.5-14.1-1.6-21.2h0c-36.2-18-75.4-33.5-116.7-47.4c-14.3,3.6-28.9,6.4-43.6,8.3
			c-19.8,2.5-39.8,3.3-59.7,2.3c-2.6-0.1-4.6-2.4-4.5-5c0.1-1.4,0.7-2.5,1.7-3.4c3-2.5,5.8-5.4,8.2-8.5c-2.6,0.9-5.2,1.9-7.7,2.8
			c-17.5,5.9-35.3,11-53.4,15c0,0.1,0,0.3,0,0.4c-5.3,20.3-7.9,41.2-6.8,62.1c0.3,4.4,0.4,8.8,0.3,13.2c-0.2,8.8-1.5,17.7-3.3,26.2
			c-8.7,43-9.3,82,23.2,115.5c21.7,21.8,48.9,35.9,78.1,44c69.5,11.4,136,1.3,195.8-55.2c3-2.9,7.5-3.5,11.2-1.7
			c1.9,0.9,3.9,1.8,5.9,2.6c0,0,0.1,0,0.1,0c23.7,8.6,52-1.2,67-21.1C714.3,413.5,717.3,394.4,708.3,379.8z M336.4,277.7
			c7.9-12.3,20.4-21.6,35.2-23.4c4.8-0.7,9.7-0.8,14.5-0.5c2.6,0.2,4.6,2.4,4.4,5c-0.2,2.8-2.7,4.8-5.4,4.4
			c-4.2-0.6-8.4-0.8-12.6-0.5c-8.4,0.5-16.3,3.6-22.8,8.9c-3.3,2.7-6.3,5.8-9,9.3C338.6,283.6,334.5,280.7,336.4,277.7z M392,342.9
			c-3.3,5.1-8.1,9.4-13.9,12.2c-12,6-27.6,2.8-36.3-7.4c-4.3-4.9-6.9-10.8-8-16.7c-0.3-1.6,0.8-3.2,2.5-3.5c1.3-0.2,2.5,0.4,3.1,1.5
			c4.9,8.5,11.8,15.9,21.4,17.7c9.6,1.8,18.8-2.2,26.9-7.9c1.4-0.9,3.2-0.6,4.2,0.8C392.6,340.6,392.6,341.9,392,342.9z
			 M404.7,374.4c2.8-1.8,5.8-2.8,8.9-3.4c1.3-0.2,2.5,0.6,2.8,1.9c0.2,1.2-0.5,2.3-1.6,2.7c-4.6,1.8-9.7,4.7-10.9,9.5
			c-0.7,4.3,2.4,7.2,5.9,9.7c2.2,1.5,0.5,5-2,4.2C395.3,395.4,394,381.3,404.7,374.4z M441.3,445.2c-0.2,1.9-0.8,3.7-1.8,5.4
			c-3.1,5.3-9,9.1-15.7,9.9c-0.5,0.1-1.1,0.1-1.6,0.1c-4.3,0-8.4-2.2-11-5.7c-0.1-0.1-0.1-0.1-0.1-0.2c-0.7-1-1.2-2-1.7-3.1
			c-3.5-9.3-3.9-17.8-1.3-25.1c1.1-3.1,3.5-5.6,6.6-6.8c3.1-1.3,6.6-1.2,9.6,0.3c6,2.8,10.9,8.1,15.2,16.1c1.4,2.7,2,5.6,1.8,8.4
			C441.3,444.8,441.3,445,441.3,445.2z M551.2,358.3c-12.6,20.5-41.3,23.4-59.1,7.7c-5.6-4.9-9.9-11.1-12.1-17.9
			c-0.5-1.6,0.3-3.3,1.9-3.8c1.3-0.4,2.6,0,3.3,1c7.4,9.6,17.2,17,29,19c11.8,2.1,23.2-2.1,32.5-9.9
			C549.3,352.3,552.9,355.5,551.2,358.3z M557.7,297.7c-1.1,0.9-2.8,0.8-3.8-0.2c-7.3-7.8-15.4-14.8-24.6-19.6
			c-9-4.7-19.1-7-29.2-5.8c-6.4,0.5-7.2-8.9-0.8-9.4c23.9-1.6,44.4,13.4,58.7,31.1C559.1,295,558.9,296.8,557.7,297.7z M698.7,397.4
			c-1,0.4-2.1,0.1-2.7-0.6c-5-5.5-11.7-8.6-18.8-6.9c-3.7,0.8-7.3,2.9-10.4,5.4c-2.9,2.5-4.7,4.7-7.2,7.5c-0.9,1-2.4,1-3.4,0.1
			c-0.7-0.6-0.9-1.5-0.7-2.3c1.1-4.5,3.5-8.7,6.9-12.2c6.8-7.3,19.1-10,28-4.8c4.5,2.5,7.8,6.4,9.6,10.7
			C700.5,395.5,699.9,396.9,698.7,397.4z"/>
		<path fill="#FFD2B3" d="M479.5,572.9c-1.2-3.6-2.8-7.4-4.7-10.7l-0.1-0.2c0-0.1-0.1-0.1-0.1-0.2c-0.3-0.5-1.5-0.8-1.6-0.1
			c1.5,4.8,2.9,11.9,3,17.4c0,1.1,0,2.3,0,3.4c0.2,7.7-9.8,11.6-14.9,5.7c-0.6-0.7-1.1-1.5-1.5-2.3c-6.4-11.3-12.4-23-18-34.6
			c-1.1-2.3-3.7-7.9-4.8-10.2c-1.5-3-5.5-4.3-8.5-2.9c-0.2,0.1-0.4,0.2-0.6,0.3l17.3,42.3c1.3,3.2-3.3,5.4-5,2.3
			c0,0-15.5-30.5-20.5-40.2c-0.7,0.5-1.4,1-2,1.5c-0.9,0.7-1.6,1.5-2.4,2.2l17.4,43.2c1.2,3.3-3.4,5.4-5.1,2.3
			c0,0-12.9-25.7-18.6-37.2c-1.2,2.1-2.3,4.4-3.3,6.7c0.7,1.6,4,9.1,7.5,16.9c4.4,10,9.1,20.7,9.1,20.7c0.6,1.4,0,3-1.4,3.6
			c-1.3,0.6-2.8,0-3.4-1.1l-15.4-27.3c-0.2,1.2-0.2,2.4-0.2,3.6c0,4.4,1.3,8.5,2.3,12.7c2.3,9,4.8,17.9,8,26.5
			c3.2,9.9,8.8,19,16.2,26.2c0.4,0.3,0.7,0.6,1,0.9c0.4,0.3,0.7,0.6,1.1,0.9c12.3,6.1,24.8,10.3,37.5,11.8c3.5-11,8-21.7,15.2-30.8
			c-2.5-4-1-8.8-0.5-13.6C483.7,599.4,483.6,585.4,479.5,572.9z"/>
		<path fill="#FFD2B3" d="M387.7,637c2.3-14.1,0-22.7-3-33.6c-2.1-7.7-4.4-16.4-5.3-28.2c-0.1-1-0.9-1.9-1.9-2.1l-0.1,0
			c-0.6-0.1-1,0.2-1.3,0.4c-0.2,0.2-0.6,0.6-0.5,1.3c0.2,3.4,0.5,7.1,1,10.9c0.4,3.1-1.4,6-4.4,6.9c-3,1-6.1-0.3-7.6-3
			c-7.6-13.7-14.6-27.9-20.5-42.1c-1.6-3.9-5.8-5.8-9.8-4.6c-0.1,0-0.1,0.1-0.2,0.1l16.6,39.7c1.2,3.1-3.2,5.2-4.8,2.3
			c0,0-15.2-28.8-20.1-38.1c-2,1.3-4,2.8-5.7,4.6l19.3,41.6c1.4,3.2-3.1,5.5-4.9,2.5c0,0-14.2-24.9-20.6-36c-1.1,2-2.2,4.2-3.1,6.6
			c-0.3,0.8-0.6,1.6-0.8,2.4l20.7,34.6c1.7,3.1-2.5,5.9-4.7,3.1c0,0-11-15-18.2-24.7c0,3.3,0.3,6.7,1.1,10
			c3.1,14.2,9.1,28.4,18,42.1c4,6.2,8.8,12,14.2,17.2c19.1,4,36.4,3.1,49.9-8.5c-0.5-0.4-1-0.7-1.5-1.1
			C388.2,640.6,387.5,638.8,387.7,637z"/>
		<path fill="#FFD2B3" d="M328.4,846.6c-9.7-1.7-19.3-1.8-28.4-0.4c-4,0.6-8.2,1.4-12.4,2.4c-6.7,1.5-12.2,6-15.1,11.9l17.1,5.1
			c2.5,0.7,1.8,4.4-0.7,4.3c0,0-12.3-0.7-18.7-1.1c-0.3,1.9-0.6,3.8-0.8,5.6l16.5,3c1.2,0.2,1.9,1.3,1.7,2.5
			c34.1,1.9,66.4,0.6,95.7-5.6c-0.8-8.3-0.7-16.7,0.1-25C366.3,850.9,348.3,850,328.4,846.6z"/>
	</g>
	<g>
		<path fill="#69453A" d="M617.9,270.4c0.2,19.8,3.2,39.6,10.7,57.9c2,5.5,5.2,10.6,7,16.1c3.9,11.3,2.4,23.6-2.1,34.5
			c1.8-0.6,3.7-1.2,5.6-1.8c5.4-7.6,12.9-13.8,21.5-17.4c12.2-5.2,26.6-5,38.6,0.3c2.4-3.6,4.6-7.2,6.8-10.9
			C699.3,325.2,666.7,296.5,617.9,270.4z"/>
		<path fill="#69453A" d="M407.6,209.3c1.9,1.2,3,3.7,1.9,6.1c-2.6,5.5-5.9,10.7-9.9,15.4c29.1,0.6,58.2-3,86.6-9.9
			c-16.3-3.9-32.4-6.9-48-8.9C427.5,210.6,417.3,209.7,407.6,209.3z"/>
		<path fill="#69453A" d="M318.1,240c0.1-0.9,0.7-1.6,1.7-2c28.1-8.5,55.3-19.4,83-29c-35-1-64.2,4.3-85.7,15.6
			c-0.5,5-0.9,10.1-1.1,15.3c-0.5,11.9-0.2,24.2,1,36.7c1.1-11.5,3.2-23,6.2-34.1c-0.8,0.1-1.5,0.3-2.3,0.4
			C319.1,243.3,317.9,241.6,318.1,240z"/>
	</g>
</g>
</svg>
